<?xml version="1.0" encoding="UTF-8" standalone="no"?>
<!-- Created with Inkscape (http://www.inkscape.org/) -->

<svg
   xmlns:dc="http://purl.org/dc/elements/1.1/"
   xmlns:cc="http://creativecommons.org/ns#"
   xmlns:rdf="http://www.w3.org/1999/02/22-rdf-syntax-ns#"
   xmlns:svg="http://www.w3.org/2000/svg"
   xmlns="http://www.w3.org/2000/svg"
   xmlns:sodipodi="http://sodipodi.sourceforge.net/DTD/sodipodi-0.dtd"
   xmlns:inkscape="http://www.inkscape.org/namespaces/inkscape"
   width="24"
   height="24"
   version="1.1"
   id="svg8"
   inkscape:version="0.92.5 (2060ec1f9f, 2020-04-08)"
   sodipodi:docname="ExternalLink.svg">
  <defs
     id="defs2" />
  <sodipodi:namedview
     id="base"
     pagecolor="#ffffff"
     bordercolor="#666666"
     borderopacity="1.0"
     inkscape:pageopacity="0.0"
     inkscape:pageshadow="2"
     inkscape:zoom="48.458333"
     inkscape:cx="12"
     inkscape:cy="12"
     inkscape:document-units="mm"
     inkscape:current-layer="layer1"
     showgrid="true"
     fit-margin-top="0"
     fit-margin-left="0"
     fit-margin-right="0"
     fit-margin-bottom="0"
     units="px"
     inkscape:window-width="2560"
     inkscape:window-height="1337"
     inkscape:window-x="1920"
     inkscape:window-y="28"
     inkscape:window-maximized="1">
    <inkscape:grid
       type="xygrid"
       id="grid819" />
  </sodipodi:namedview>
  <metadata
     id="metadata5">
    <rdf:RDF>
      <cc:Work
         rdf:about="">
        <dc:format>image/svg+xml</dc:format>
        <dc:type
           rdf:resource="http://purl.org/dc/dcmitype/StillImage" />
        <dc:title />
      </cc:Work>
    </rdf:RDF>
  </metadata>
  <g
     inkscape:label="Layer 1"
     inkscape:groupmode="layer"
     id="layer1">
    <rect
       style="opacity:0;vector-effect:none;fill:none;fill-opacity:1;stroke:#fce94f;stroke-width:2;stroke-linecap:round;stroke-linejoin:round;stroke-miterlimit:4;stroke-dasharray:none;stroke-dashoffset:0;stroke-opacity:1"
       id="rect815"
       width="16"
       height="16"
       x="4"
       y="4"
       rx="1"
       ry="1" />
    <path
       style="color:#000000;font-style:normal;font-variant:normal;font-weight:normal;font-stretch:normal;font-size:medium;line-height:normal;font-family:sans-serif;font-variant-ligatures:normal;font-variant-position:normal;font-variant-caps:normal;font-variant-numeric:normal;font-variant-alternates:normal;font-feature-settings:normal;text-indent:0;text-align:start;text-decoration:none;text-decoration-line:none;text-decoration-style:solid;text-decoration-color:#000000;letter-spacing:normal;word-spacing:normal;text-transform:none;writing-mode:lr-tb;direction:ltr;text-orientation:mixed;dominant-baseline:auto;baseline-shift:baseline;text-anchor:start;white-space:normal;shape-padding:0;clip-rule:nonzero;display:inline;overflow:visible;visibility:visible;opacity:1;isolation:auto;mix-blend-mode:normal;color-interpolation:sRGB;color-interpolation-filters:linearRGB;solid-color:#000000;solid-opacity:1;vector-effect:none;fill:#000000;fill-opacity:1;fill-rule:nonzero;stroke:none;stroke-width:3;stroke-linecap:round;stroke-linejoin:round;stroke-miterlimit:4;stroke-dasharray:none;stroke-dashoffset:0;stroke-opacity:1;color-rendering:auto;image-rendering:auto;shape-rendering:auto;text-rendering:auto;enable-background:accumulate"
       d="M 14 2.5 A 1.50015 1.50015 0 1 0 14 5.5 L 16.378906 5.5 L 8.9394531 12.939453 A 1.50015 1.50015 0 1 0 11.060547 15.060547 L 18.5 7.6210938 L 18.5 10 A 1.50015 1.50015 0 1 0 21.5 10 L 21.5 4 A 1.50015 1.50015 0 0 0 21.5 3.9902344 A 1.50015 1.50015 0 0 0 21.494141 3.8789062 A 1.50015 1.50015 0 0 0 21.492188 3.8496094 A 1.50015 1.50015 0 0 0 21.490234 3.8417969 A 1.50015 1.50015 0 0 0 21.482422 3.7851562 A 1.50015 1.50015 0 0 0 21.480469 3.7695312 A 1.50015 1.50015 0 0 0 21.464844 3.6796875 A 1.50015 1.50015 0 0 0 21.427734 3.5410156 A 1.50015 1.50015 0 0 0 21.425781 3.5351562 A 1.50015 1.50015 0 0 0 21.337891 3.3261719 A 1.50015 1.50015 0 0 0 21.308594 3.2695312 A 1.50015 1.50015 0 0 0 21.304688 3.2617188 A 1.50015 1.50015 0 0 0 21.300781 3.2578125 A 1.50015 1.50015 0 0 0 21.279297 3.2207031 A 1.50015 1.50015 0 0 0 21.224609 3.1347656 A 1.50015 1.50015 0 0 0 21.132812 3.0175781 A 1.50015 1.50015 0 0 0 21.044922 2.9238281 A 1.50015 1.50015 0 0 0 21.029297 2.9082031 A 1.50015 1.50015 0 0 0 20.994141 2.8789062 A 1.50015 1.50015 0 0 0 20.984375 2.8710938 A 1.50015 1.50015 0 0 0 20.914062 2.8105469 A 1.50015 1.50015 0 0 0 20.912109 2.8085938 A 1.50015 1.50015 0 0 0 20.810547 2.7382812 A 1.50015 1.50015 0 0 0 20.791016 2.7265625 A 1.50015 1.50015 0 0 0 20.789062 2.7265625 A 1.50015 1.50015 0 0 0 20.783203 2.7226562 A 1.50015 1.50015 0 0 0 20.765625 2.7109375 A 1.50015 1.50015 0 0 0 20.664062 2.6542969 A 1.50015 1.50015 0 0 0 20.660156 2.6523438 A 1.50015 1.50015 0 0 0 20.542969 2.6015625 A 1.50015 1.50015 0 0 0 20.525391 2.5957031 A 1.50015 1.50015 0 0 0 20.521484 2.59375 A 1.50015 1.50015 0 0 0 20.486328 2.5820312 A 1.50015 1.50015 0 0 0 20.386719 2.5507812 A 1.50015 1.50015 0 0 0 20.384766 2.5507812 A 1.50015 1.50015 0 0 0 20.378906 2.5488281 A 1.50015 1.50015 0 0 0 20.337891 2.5410156 A 1.50015 1.50015 0 0 0 20.300781 2.53125 A 1.50015 1.50015 0 0 0 20.255859 2.5214844 A 1.50015 1.50015 0 0 0 20.244141 2.5195312 A 1.50015 1.50015 0 0 0 20.107422 2.5039062 A 1.50015 1.50015 0 0 0 20.099609 2.5039062 A 1.50015 1.50015 0 0 0 20 2.5 L 19.955078 2.5 L 14 2.5 z "
       id="rect4529" />
    <path
       style="fill:#000000;stroke:none;stroke-width:1px;stroke-linecap:butt;stroke-linejoin:miter;stroke-opacity:1"
       d="M 5,3 C 3.9092972,3 3,3.9092972 3,5 v 14 c 0,1.090703 0.9092972,2 2,2 h 14 c 1.090703,0 2,-0.909297 2,-2 v -4 h -2 v 4 H 5 V 5 H 9 V 3 Z"
       id="path4538"
       inkscape:connector-curvature="0"
       sodipodi:nodetypes="sssssscccccccs" />
  </g>
</svg>
