<?xml version="1.0" encoding="UTF-8"?>
<svg width="92.604mm" height="29.104mm" version="1.1" viewBox="0 0 92.604 29.104" xmlns="http://www.w3.org/2000/svg">
<g transform="translate(170.59 -108.18)">
<path d="m-169.24 120.94c0.0536-0.27157 0.1498-0.53296 0.21399-0.58085 0.0641-0.0479 0.15028-0.22747 0.19127-0.3993 0.0411-0.17177 0.32086-1.2108 0.62186-2.3092s0.73054-3.3077 0.95458-4.9097c0.25566-1.8284 0.53333-3.0068 0.74584-3.1653 0.80531-0.6005 1.9316-0.49078 1.6732 0.16312-0.0519 0.13109 0.0481 0.32106 0.22186 0.42228 0.1738 0.10133 0.969 0.78533 1.767 1.5203 0.79797 0.73497 2.0348 1.8745 2.7484 2.5323 0.71364 0.65783 1.5298 1.3665 1.8136 1.5749 1.9519 1.433 2.3789 2.426 1.3676 3.1802-0.73266 0.54637-1.1848 0.47511-2.058-0.3244-0.35367-0.32381-1.3414-1.2134-2.195-1.9769-0.85359-0.76349-1.8069-1.6319-2.1184-1.9299-1.545-1.4776-0.26574 1.8295 1.8172 4.6997 3.4883 4.4749 8.1483 7.9117 13.377 10.148 4.7049 1.9677 8.3362 2.8662 13.638 3.3745 1.4114 0.13527 5.9391-0.0269 7.2574-0.26002 0.61528-0.10864 1.1828-0.18931 1.2616-0.17601 0.28177 0.0404 2.6497-0.44867 2.8339-0.58604 0.37369-0.27865 0.55266 0.37037 0.23905 0.86653-0.57638 0.91159-3.3536 1.7887-6.0263 1.9032-0.33918 0.0147-1.2694 0.0726-2.0672 0.12935-1.6801 0.11919-1.3767 0.11716-4.0526 0.027-12.164-0.41003-24.796-6.9926-29.829-15.544-1.2149-2.064-1.2907-2.1306-1.5324-1.3466-0.85547 2.775-1.3216 3.5102-2.3212 3.6606-0.55143 0.0829-0.66671-0.0639-0.54298-0.69215z"/>
<g transform="translate(-156.86 -10.112)" stroke-width=".26458">
<g aria-label="select other">
<path d="m25.878 131.96c-0.09525 0.37042-0.11642 0.3175-0.11642 0.85725 0 0.60325 0.0635 0.83608 0.53975 1.5663 0.47625 0.91017 0.66675 1.3335 0.66675 1.7039v0.16933c0 0.23284-0.0635 0.52917-0.73025 0.55034-0.42333 0.0212-0.66675 0.0741-0.66675 0.254-0.01058 0.0317-0.02117 0.0529-0.02117 0.0741 0 0.0741 0.07408 0.10583 0.21167 0.15875 0.17992 0.0741 0.62442 0.10583 1.0372 0.10583 0.29633 0 0.5715-0.0212 0.71967-0.0423 0.62442-0.16933 1.0372-0.60325 1.0372-1.1536 0-0.0318-0.01058-0.0741-0.01058-0.11642 0-0.37042-0.1905-0.79375-0.73025-1.7039-0.508-0.87841-0.67733-1.1853-0.67733-1.5875 0-0.0635 0-0.13758 0.01058-0.22225 0-0.30691 0.04233-0.6985 0.73025-0.73025 0.40217-0.0212 0.55033-0.0423 0.55033-0.15875 0-0.0212 0-0.0423-0.01058-0.0741-0.0635-0.127-0.35983-0.254-0.96308-0.254s-1.0901 0.0106-1.5769 0.60325z"/>
<path d="m29.709 132.22c-0.17992 0.15875-0.55033 1.1007-0.55033 2.0955 0 0.62442 0.14817 1.27 0.60325 1.7462 0.33867 0.40217 0.74083 0.51859 1.4817 0.51859 0.5715 0 1.1536-0.37042 1.1536-0.78317 0-0.1905-0.05292-0.254-0.13758-0.254-0.11642 0-0.28575 0.11642-0.4445 0.20108-0.08467 0.0106-0.15875 0.0106-0.22225 0.0106-0.17992 0-0.3175-0.0423-0.4445-0.254-0.22225-0.33867-0.34925-0.762-0.40217-1.3335 0-0.46567 0.13758-0.4445 0.42333-0.56092 0.64558-0.20108 1.016-0.5715 1.016-0.97367 0-0.16933-0.0635-0.33866-0.20108-0.508-0.14817-0.1905-0.39158-0.45508-0.86783-0.45508-0.24342 0-0.56092 0.0741-0.9525 0.27517-0.17992 0.0529-0.40217 0.22225-0.45508 0.27516zm1.6828 0.42334c0 0.28575-0.10583 0.4445-0.4445 0.62441-0.05292 0.0212-0.11642 0.0317-0.16933 0.0317-0.0635 0-0.11642-0.0106-0.14817-0.0423-0.01058-0.0529-0.02117-0.13758-0.02117-0.24342 0-0.254 0.03175-0.58208 0.07408-0.66675 0.0635-0.16933 0.22225-0.254 0.37042-0.254 0.10583 0 0.21167 0.0423 0.28575 0.13759 0.05292 0.0529 0.05292 0.23283 0.05292 0.41275z"/>
<path d="m33.265 129.69c-0.0635 0.0635-0.13758 2.0426-0.13758 4.1487 0 2.0426 0.07408 2.3812 0.40217 2.7728 0.127 0.127 0.47625 0.29633 0.85725 0.29633 0.22225 0 0.45508-0.0635 0.65617-0.23283 0.02117-0.0529 0.04233-0.0952 0.04233-0.15875 0-0.10584-0.03175-0.254-0.10583-0.56092-0.0635-0.52917-0.13758-0.85725-0.13758-3.1644 0-2.3072 0-2.5718-0.127-2.8363-0.0635-0.20108-0.20108-0.33867-0.32808-0.40217-0.11642-0.0741-0.34925-0.10583-0.55033-0.10583-0.14817 0-0.28575 0.0212-0.37042 0.0423-0.0635 0.0635-0.20108 0.13759-0.20108 0.20109z"/>
<path d="m36.006 132.22c-0.17992 0.15875-0.55033 1.1007-0.55033 2.0955 0 0.62442 0.14817 1.27 0.60325 1.7462 0.33867 0.40217 0.74083 0.51859 1.4817 0.51859 0.5715 0 1.1536-0.37042 1.1536-0.78317 0-0.1905-0.05292-0.254-0.13758-0.254-0.11642 0-0.28575 0.11642-0.4445 0.20108-0.08467 0.0106-0.15875 0.0106-0.22225 0.0106-0.17992 0-0.3175-0.0423-0.4445-0.254-0.22225-0.33867-0.34925-0.762-0.40217-1.3335 0-0.46567 0.13758-0.4445 0.42333-0.56092 0.64558-0.20108 1.016-0.5715 1.016-0.97367 0-0.16933-0.0635-0.33866-0.20108-0.508-0.14817-0.1905-0.39158-0.45508-0.86783-0.45508-0.24342 0-0.56092 0.0741-0.9525 0.27517-0.17992 0.0529-0.40217 0.22225-0.45508 0.27516zm1.6828 0.42334c0 0.28575-0.10583 0.4445-0.4445 0.62441-0.05292 0.0212-0.11642 0.0317-0.16933 0.0317-0.0635 0-0.11642-0.0106-0.14817-0.0423-0.01058-0.0529-0.02117-0.13758-0.02117-0.24342 0-0.254 0.03175-0.58208 0.07408-0.66675 0.0635-0.16933 0.22225-0.254 0.37042-0.254 0.10583 0 0.21167 0.0423 0.28575 0.13759 0.05292 0.0529 0.05292 0.23283 0.05292 0.41275z"/>
<path d="m39.869 132.58c-0.1905 0.27516-0.30692 0.46566-0.4445 0.98425-0.05292 0.32808-0.08467 0.67733-0.08467 1.016 0 0.53975 0.07408 1.0372 0.23283 1.397 0.254 0.49741 0.56092 0.75141 1.2594 0.75141h0.254c0.65617 0 0.99483-0.23283 1.3335-0.81491 0.10583-0.1905 0.15875-0.3175 0.15875-0.41275 0-0.127-0.10583-0.1905-0.29633-0.26459-0.03175-0.0106-0.0635-0.0212-0.09525-0.0212-0.1905 0-0.37042 0.17991-0.62442 0.41275-0.09525 0.0847-0.1905 0.127-0.26458 0.127-0.11642 0-0.20108-0.0741-0.23283-0.17992-0.127-0.3175-0.17992-0.56092-0.17992-1.0266 0-0.127 0-0.27517 0.01058-0.45509 0.04233-1.1324 0.127-1.397 0.42333-1.7251 0.0635-0.0423 0.127-0.0529 0.1905-0.0529 0.11642 0 0.22225 0.0635 0.29633 0.21167 0.08467 0.0423 0.16933 0.0529 0.254 0.0529 0.17992 0 0.32808-0.0741 0.32808-0.1905 0-0.0106-0.01058-0.0212-0.01058-0.0318v-0.0106c0-0.23283-0.52917-0.55033-1.0795-0.55033-0.10583 0-0.20108 0.0106-0.30692 0.0317-0.40217 0.10583-0.8255 0.35983-1.1218 0.75142z"/>
<path d="m43.922 130.03c-0.07408 0.14817-0.22225 1.143-0.29633 1.7462-0.07408 0.381-0.07408 0.381-0.30692 0.381-0.30692 0-0.52917 0.15875-0.60325 0.30692 0 0.14817 0.29633 0.29633 0.52917 0.29633s0.22225 0 0.29633 1.5981c0.14817 1.8203 0.23283 2.1908 0.53975 2.4236 0.26458 0.26458 0.762 0.41275 1.2277 0.41275 0.21167 0 0.42333-0.0318 0.59267-0.10583 0.16933-0.0635 0.254-0.13759 0.254-0.21167 0-0.0847-0.11642-0.1905-0.32808-0.3175-0.14817-0.0741-0.30692-0.23283-0.381-0.30692-0.07408-0.23283-0.15875-1.5981-0.23283-2.9633-0.02117-0.21167-0.03175-0.35983-0.03175-0.47625 0-0.35983 0.127-0.381 0.64558-0.43392 0.45508 0 0.67733-0.0741 0.75142-0.14816 0.0635-0.0635 0.08467-0.10584 0.08467-0.14817 0-0.127-0.26458-0.17992-0.83608-0.23283-0.60325 0-0.61383 0-0.61383-0.83609 0-0.762 0-0.98425-0.07408-1.0583-0.10583-0.0529-0.43392-0.10583-0.70908-0.10583-0.10583 0-0.21167 0.0106-0.27517 0.0317-0.07408 0.0741-0.23283 0.14816-0.23283 0.14816z"/>
<path d="m50.463 133.08c-0.22225 0.48684-0.30692 0.79375-0.30692 1.3652s0.22225 1.2806 1.0583 1.6616c0.20108 0.0635 0.51858 0.0952 0.83608 0.0952s0.635-0.0318 0.8255-0.0952c0.889-0.3175 1.3758-0.91017 1.3758-1.7462 0-0.0741 0-0.15875-0.01058-0.23284-0.04233-0.61383-0.47625-1.2277-1.0478-1.4922-0.15875-0.0635-0.24342-0.10583-0.39158-0.10583-0.0635 0-0.13758 0.0106-0.22225 0.0212-0.29633 0-0.381-0.0106-0.381-0.0635 0-0.0212 0.01058-0.0423 0.02117-0.0741 0.127-0.16933 0.26458-0.29633 0.48683-0.39158 0.14817-0.0741 0.23283-0.127 0.23283-0.17992 0-0.0423-0.05292-0.0741-0.14817-0.11641-0.05292-0.0106-0.127-0.0212-0.21167-0.0212-0.22225 0-0.508 0.0317-0.62442 0.0635-0.5715 0.16933-1.1853 0.74083-1.4922 1.3123zm2.2437 1.7039c-0.04233 0.22225-0.17992 0.508-0.5715 0.70908h-0.02117c-0.11642 0-0.34925-0.32808-0.46567-0.61383-0.04233-0.127-0.0635-0.24342-0.0635-0.37042 0-0.1905 0.04233-0.41275 0.11642-0.77258 0.04233-0.30692 0.21167-0.87842 0.254-0.87842 0 0 0.17992 0.13759 0.30692 0.30692 0.37042 0.37042 0.55033 0.70908 0.55033 1.0901 0 0.16934-0.04233 0.33867-0.10583 0.52917z"/>
<path d="m55.331 130.03c-0.07408 0.14817-0.22225 1.143-0.29633 1.7462-0.07408 0.381-0.07408 0.381-0.30692 0.381-0.30692 0-0.52917 0.15875-0.60325 0.30692 0 0.14817 0.29633 0.29633 0.52917 0.29633s0.22225 0 0.29633 1.5981c0.14817 1.8203 0.23283 2.1908 0.53975 2.4236 0.26458 0.26458 0.762 0.41275 1.2277 0.41275 0.21167 0 0.42333-0.0318 0.59267-0.10583 0.16933-0.0635 0.254-0.13759 0.254-0.21167 0-0.0847-0.11642-0.1905-0.32808-0.3175-0.14817-0.0741-0.30692-0.23283-0.381-0.30692-0.07408-0.23283-0.15875-1.5981-0.23283-2.9633-0.02117-0.21167-0.03175-0.35983-0.03175-0.47625 0-0.35983 0.127-0.381 0.64558-0.43392 0.45508 0 0.67733-0.0741 0.75142-0.14816 0.0635-0.0635 0.08467-0.10584 0.08467-0.14817 0-0.127-0.26458-0.17992-0.83608-0.23283-0.60325 0-0.61383 0-0.61383-0.83609 0-0.762 0-0.98425-0.07408-1.0583-0.10583-0.0529-0.43392-0.10583-0.70908-0.10583-0.10583 0-0.21167 0.0106-0.27517 0.0317-0.07408 0.0741-0.23283 0.14816-0.23283 0.14816z"/>
<path d="m58.262 132.29c-0.01058 1.2065-0.02117 2.0743-0.02117 2.6988 0 1.5346 0.05292 1.6404 0.27517 1.8203 0.10583 0.0741 0.34925 0.127 0.59267 0.127 0.08467 0 0.16933-0.0106 0.24342-0.0212 0.30692-0.0423 0.5715-0.34925 0.8255-0.86783 0.10583-0.254 0.29633-0.77259 0.40217-1.0266 0.28575-0.70908 0.5715-1.2065 0.64558-1.2065 0.01058 0 0.02117 0 0.02117 0.0106h0.01058c0.01058 0 0.04233 0.0423 0.04233 0.42333 0 0.254-0.01058 0.65617-0.05292 1.2806-0.02117 0.42334-0.04233 0.75142-0.04233 0.99484 0 0.79375 0.13758 0.84666 0.48683 0.84666h0.34925c0.381 0 0.40217-0.0635 0.40217-1.1218v-0.5715c-0.04233-2.3072-0.16933-2.7728-0.78317-2.8787-0.0635-0.0106-0.127-0.0106-0.17992-0.0106-0.58208 0-1.0372 0.46567-1.3652 1.3547-0.04233 0.21166-0.14817 0.35983-0.14817 0.35983v-0.67733c0.01058-0.16934 0.01058-0.381 0.01058-0.62442 0-1.1218-0.07408-2.8363-0.15875-3.175-0.04233-0.21167-0.127-0.42333-0.16933-0.46567-0.14817-0.16933-0.42333-0.27516-0.68792-0.27516-0.11642 0-0.24342 0.0212-0.33867 0.0741-0.30692 0.14817-0.3175 0-0.35983 2.9316z"/>
<path d="m63.448 132.22c-0.17992 0.15875-0.55033 1.1007-0.55033 2.0955 0 0.62442 0.14817 1.27 0.60325 1.7462 0.33867 0.40217 0.74083 0.51859 1.4817 0.51859 0.5715 0 1.1536-0.37042 1.1536-0.78317 0-0.1905-0.05292-0.254-0.13758-0.254-0.11642 0-0.28575 0.11642-0.4445 0.20108-0.08467 0.0106-0.15875 0.0106-0.22225 0.0106-0.17992 0-0.3175-0.0423-0.4445-0.254-0.22225-0.33867-0.34925-0.762-0.40217-1.3335 0-0.46567 0.13758-0.4445 0.42333-0.56092 0.64558-0.20108 1.016-0.5715 1.016-0.97367 0-0.16933-0.0635-0.33866-0.20108-0.508-0.14817-0.1905-0.39158-0.45508-0.86783-0.45508-0.24342 0-0.56092 0.0741-0.9525 0.27517-0.17992 0.0529-0.40217 0.22225-0.45508 0.27516zm1.6828 0.42334c0 0.28575-0.10583 0.4445-0.4445 0.62441-0.05292 0.0212-0.11642 0.0317-0.16933 0.0317-0.0635 0-0.11642-0.0106-0.14817-0.0423-0.01058-0.0529-0.02117-0.13758-0.02117-0.24342 0-0.254 0.03175-0.58208 0.07408-0.66675 0.0635-0.16933 0.22225-0.254 0.37042-0.254 0.10583 0 0.21167 0.0423 0.28575 0.13759 0.05292 0.0529 0.05292 0.23283 0.05292 0.41275z"/>
<path d="m66.846 131.7c-0.0635 0.0423-0.10583 0.0635-0.10583 0.15875 0 0.0952 0.04233 0.27517 0.10583 0.62442 0.08467 0.37041 0.127 1.9897 0.127 3.048 0 0.64558 0 0.64558 0.1905 0.78316 0.07408 0.0529 0.35983 0.0952 0.65617 0.0952 0.21167 0 0.43392-0.0317 0.58208-0.0952 0.127-0.0953 0.16933-0.11641 0.16933-0.3175 0-0.0953-0.01058-0.24341-0.03175-0.46566 0-0.45509 0-0.68792 0.05292-0.8255 0.45508-1.2382 0.48683-1.7886 1.6192-2.2119 0.15875-0.0952 0.22225-0.13758 0.22225-0.21167 0-0.0212-0.01058-0.0635-0.04233-0.10583-0.09525-0.0952-0.3175-0.22225-0.62442-0.22225-0.14817 0-0.3175 0.0317-0.49742 0.10583-0.49742 0.22225-0.58208 0.61384-0.77258 0.84667-0.02117 0.0529-0.03175 0.0847-0.04233 0.0847s-0.02117-0.0847-0.05292-0.27517c-0.05292-0.13758-0.04233-0.70908-0.45508-1.0583-0.13758-0.0635-0.43392-0.11642-0.64558-0.11642-0.07408 0-0.13758 0.0106-0.1905 0.0212-0.08467 0.0529-0.21167 0.0847-0.26458 0.13758z"/>
</g>
<g aria-label="views here">
<path d="m39.766 142.48c0.05292 0.32809 0.59267 2.9316 0.6985 3.2597 0.07408 0.14817 0.33867 0.32808 0.8255 0.32808 0.20108 0 0.45508-0.0318 0.75142-0.11641 0.32808-0.15875 0.32808-0.21167 0.48683-1.0795 0.05292-0.27517 0.81492-3.2597 0.81492-3.5348 0-0.254-0.1905-0.49741-0.42333-0.49741-0.127 0-0.26458 0.0635-0.39158 0.23283-0.10583 0.21167-0.49742 1.5134-0.70908 2.2754-0.05292 0.21166-0.10583 0.43391-0.15875 0.43391 0 0-0.05292-0.21166-0.10583-0.48683-0.10583-0.59267-0.55033-1.905-0.70908-2.1167-0.05292-0.10583-0.15875-0.22225-0.21167-0.27516-0.04233-0.0212-0.16933-0.0318-0.3175-0.0318-0.21167 0-0.45508 0.0212-0.55033 0.0847-0.13758 0.0529-0.20108 0.14817-0.20108 0.37042s0.0635 0.58208 0.20108 1.1536z"/>
<path d="m44.042 139.63c-0.01058 0.0635-0.02117 0.127-0.02117 0.17991 0 0.10584 0.03175 0.17992 0.09525 0.21167 0.11642 0.0847 0.28575 0.127 0.45508 0.127 0.24342 0 0.49742-0.0741 0.635-0.20108 0.07408-0.10584 0.11642-0.27517 0.11642-0.43392 0-0.13758-0.03175-0.26458-0.08467-0.33867-0.0635-0.0635-0.10583-0.0847-0.1905-0.0847-0.0635 0-0.14817 0.0106-0.28575 0.0212-0.254 0.0212-0.66675 0.0317-0.71967 0.51859zm-0.03175 2.4024c-0.0635 0.6985-0.09525 1.3335-0.09525 1.8838 0 0.81491 0.0635 1.4182 0.17992 1.6616 0.08467 0.24342 0.24342 0.53975 0.62442 0.53975 0.16933 0 0.381-0.0635 0.64558-0.20108 0.0635-0.0847 0.08467-0.13759 0.08467-0.41275 0-0.15875-0.01058-0.39159-0.02117-0.75142-0.03175-0.41275-0.04233-0.84667-0.04233-1.1642 0-0.15875 0-0.28575 0.01058-0.37041 0.01058-0.32809 0.01058-0.60325 0.01058-0.84667 0-0.91017-0.0635-1.27-0.28575-1.4393-0.05292-0.0529-0.16933-0.0741-0.29633-0.0741-0.15875 0-0.33867 0.0318-0.4445 0.11642-0.14817 0.0741-0.33867 0.127-0.37042 1.0583z"/>
<path d="m46.518 141.34c-0.17992 0.15875-0.55033 1.1007-0.55033 2.0955 0 0.62442 0.14817 1.27 0.60325 1.7462 0.33867 0.40217 0.74083 0.51859 1.4817 0.51859 0.5715 0 1.1536-0.37042 1.1536-0.78317 0-0.1905-0.05292-0.254-0.13758-0.254-0.11642 0-0.28575 0.11642-0.4445 0.20108-0.08467 0.0106-0.15875 0.0106-0.22225 0.0106-0.17992 0-0.3175-0.0423-0.4445-0.254-0.22225-0.33867-0.34925-0.762-0.40217-1.3335 0-0.46567 0.13758-0.4445 0.42333-0.56092 0.64558-0.20108 1.016-0.5715 1.016-0.97367 0-0.16933-0.0635-0.33866-0.20108-0.508-0.14817-0.1905-0.39158-0.45508-0.86783-0.45508-0.24342 0-0.56092 0.0741-0.9525 0.27517-0.17992 0.0529-0.40217 0.22225-0.45508 0.27516zm1.6828 0.42334c0 0.28575-0.10583 0.4445-0.4445 0.62441-0.05292 0.0212-0.11642 0.0318-0.16933 0.0318-0.0635 0-0.11642-0.0106-0.14817-0.0423-0.01058-0.0529-0.02117-0.13758-0.02117-0.24342 0-0.254 0.03175-0.58208 0.07408-0.66675 0.0635-0.16933 0.22225-0.254 0.37042-0.254 0.10583 0 0.21167 0.0423 0.28575 0.13759 0.05292 0.0529 0.05292 0.23283 0.05292 0.41275z"/>
<path d="m49.757 142.13c0.11642 2.5718 0.40217 3.6301 1.0478 3.8629 0.07408 0 0.24342 0.0423 0.41275 0.0423 0.08467 0 0.15875-0.0106 0.23283-0.0423 0.35983-0.0741 0.40217-0.27517 0.508-0.53975 0.0635-0.17992 0.508-0.87842 0.62442-0.87842 0.0635 0 0.40217 1.016 1.0583 1.016h0.02117c0.35983 0 0.52917-0.17991 0.59267-0.59266 0.0635-0.34925 0.37042-2.3178 0.37042-2.6141v-0.14816c0-0.381-0.03175-0.67734-0.59267-0.67734h-0.05292c-0.381 0.0106-0.53975 0.0847-0.53975 0.35984 0 0.0529 0 0.10583 0.01058 0.16933 0 0.40217-0.127 2.032-0.1905 2.032 0 0-0.30692-0.68792-0.5715-0.73025-0.03175-0.0106-0.0635-0.0106-0.09525-0.0106-0.28575 0-0.41275 0.254-0.73025 0.62441-0.127 0.15875-0.20108 0.27517-0.254 0.27517-0.09525 0-0.127-0.33867-0.27517-1.4393-0.11642-1.1748-0.23283-1.7039-0.34925-1.8203-0.07408-0.0741-0.35983-0.11641-0.635-0.11641-0.16933 0-0.32808 0.0212-0.42333 0.0635-0.127 0.0423-0.1905 0.11641-0.1905 0.53975 0 0.14816 0 0.35983 0.02117 0.62441z"/>
<path d="m55.334 141.07c-0.09525 0.37042-0.11642 0.3175-0.11642 0.85725 0 0.60325 0.0635 0.83608 0.53975 1.5663 0.47625 0.91017 0.66675 1.3335 0.66675 1.7039v0.16933c0 0.23284-0.0635 0.52917-0.73025 0.55034-0.42333 0.0212-0.66675 0.0741-0.66675 0.254-0.01058 0.0317-0.02117 0.0529-0.02117 0.0741 0 0.0741 0.07408 0.10583 0.21167 0.15875 0.17992 0.0741 0.62442 0.10583 1.0372 0.10583 0.29633 0 0.5715-0.0212 0.71967-0.0423 0.62442-0.16933 1.0372-0.60325 1.0372-1.1536 0-0.0317-0.01058-0.0741-0.01058-0.11642 0-0.37042-0.1905-0.79375-0.73025-1.7039-0.508-0.87841-0.67733-1.1853-0.67733-1.5875 0-0.0635 0-0.13758 0.01058-0.22225 0-0.30691 0.04233-0.6985 0.73025-0.73025 0.40217-0.0212 0.55033-0.0423 0.55033-0.15875 0-0.0212 0-0.0423-0.01058-0.0741-0.0635-0.127-0.35983-0.254-0.96308-0.254-0.60325 0-1.0901 0.0106-1.5769 0.60325z"/>
<path d="m61.832 141.4c-0.01058 1.2065-0.02117 2.0743-0.02117 2.6988 0 1.5346 0.05292 1.6404 0.27517 1.8203 0.10583 0.0741 0.34925 0.127 0.59267 0.127 0.08467 0 0.16933-0.0106 0.24342-0.0212 0.30692-0.0423 0.5715-0.34925 0.8255-0.86783 0.10583-0.254 0.29633-0.77259 0.40217-1.0266 0.28575-0.70908 0.5715-1.2065 0.64558-1.2065 0.01058 0 0.02117 0 0.02117 0.0106h0.01058c0.01058 0 0.04233 0.0423 0.04233 0.42333 0 0.254-0.01058 0.65617-0.05292 1.2806-0.02117 0.42334-0.04233 0.75142-0.04233 0.99484 0 0.79375 0.13758 0.84666 0.48683 0.84666h0.34925c0.381 0 0.40217-0.0635 0.40217-1.1218v-0.5715c-0.04233-2.3072-0.16933-2.7728-0.78317-2.8787-0.0635-0.0106-0.127-0.0106-0.17992-0.0106-0.58208 0-1.0372 0.46567-1.3652 1.3547-0.04233 0.21166-0.14817 0.35983-0.14817 0.35983v-0.67733c0.01058-0.16934 0.01058-0.381 0.01058-0.62442 0-1.1218-0.07408-2.8363-0.15875-3.175-0.04233-0.21167-0.127-0.42333-0.16933-0.46567-0.14817-0.16933-0.42333-0.27516-0.68792-0.27516-0.11642 0-0.24342 0.0212-0.33867 0.0741-0.30692 0.14817-0.3175 0-0.35983 2.9316z"/>
<path d="m67.018 141.34c-0.17992 0.15875-0.55033 1.1007-0.55033 2.0955 0 0.62442 0.14817 1.27 0.60325 1.7462 0.33867 0.40217 0.74083 0.51859 1.4817 0.51859 0.5715 0 1.1536-0.37042 1.1536-0.78317 0-0.1905-0.05292-0.254-0.13758-0.254-0.11642 0-0.28575 0.11642-0.4445 0.20108-0.08467 0.0106-0.15875 0.0106-0.22225 0.0106-0.17992 0-0.3175-0.0423-0.4445-0.254-0.22225-0.33867-0.34925-0.762-0.40217-1.3335 0-0.46567 0.13758-0.4445 0.42333-0.56092 0.64558-0.20108 1.016-0.5715 1.016-0.97367 0-0.16933-0.0635-0.33866-0.20108-0.508-0.14817-0.1905-0.39158-0.45508-0.86783-0.45508-0.24342 0-0.56092 0.0741-0.9525 0.27517-0.17992 0.0529-0.40217 0.22225-0.45508 0.27516zm1.6828 0.42334c0 0.28575-0.10583 0.4445-0.4445 0.62441-0.05292 0.0212-0.11642 0.0318-0.16933 0.0318-0.0635 0-0.11642-0.0106-0.14817-0.0423-0.01058-0.0529-0.02117-0.13758-0.02117-0.24342 0-0.254 0.03175-0.58208 0.07408-0.66675 0.0635-0.16933 0.22225-0.254 0.37042-0.254 0.10583 0 0.21167 0.0423 0.28575 0.13759 0.05292 0.0529 0.05292 0.23283 0.05292 0.41275z"/>
<path d="m70.415 140.82c-0.0635 0.0423-0.10583 0.0635-0.10583 0.15875 0 0.0952 0.04233 0.27517 0.10583 0.62442 0.08467 0.37041 0.127 1.9897 0.127 3.048 0 0.64558 0 0.64558 0.1905 0.78316 0.07408 0.0529 0.35983 0.0953 0.65617 0.0953 0.21167 0 0.43392-0.0318 0.58208-0.0953 0.127-0.0952 0.16933-0.11641 0.16933-0.3175 0-0.0952-0.01058-0.24341-0.03175-0.46566 0-0.45509 0-0.68792 0.05292-0.8255 0.45508-1.2382 0.48683-1.7886 1.6192-2.2119 0.15875-0.0953 0.22225-0.13758 0.22225-0.21167 0-0.0212-0.01058-0.0635-0.04233-0.10583-0.09525-0.0952-0.3175-0.22225-0.62442-0.22225-0.14817 0-0.3175 0.0318-0.49742 0.10583-0.49742 0.22225-0.58208 0.61384-0.77258 0.84667-0.02117 0.0529-0.03175 0.0847-0.04233 0.0847s-0.02117-0.0847-0.05292-0.27517c-0.05292-0.13758-0.04233-0.70908-0.45508-1.0583-0.13758-0.0635-0.43392-0.11642-0.64558-0.11642-0.07408 0-0.13758 0.0106-0.1905 0.0212-0.08467 0.0529-0.21167 0.0847-0.26458 0.13758z"/>
<path d="m74.659 141.34c-0.17992 0.15875-0.55033 1.1007-0.55033 2.0955 0 0.62442 0.14817 1.27 0.60325 1.7462 0.33867 0.40217 0.74083 0.51859 1.4817 0.51859 0.5715 0 1.1536-0.37042 1.1536-0.78317 0-0.1905-0.05292-0.254-0.13758-0.254-0.11642 0-0.28575 0.11642-0.4445 0.20108-0.08467 0.0106-0.15875 0.0106-0.22225 0.0106-0.17992 0-0.3175-0.0423-0.4445-0.254-0.22225-0.33867-0.34925-0.762-0.40217-1.3335 0-0.46567 0.13758-0.4445 0.42333-0.56092 0.64558-0.20108 1.016-0.5715 1.016-0.97367 0-0.16933-0.0635-0.33866-0.20108-0.508-0.14817-0.1905-0.39158-0.45508-0.86783-0.45508-0.24342 0-0.56092 0.0741-0.9525 0.27517-0.17992 0.0529-0.40217 0.22225-0.45508 0.27516zm1.6828 0.42334c0 0.28575-0.10583 0.4445-0.4445 0.62441-0.05292 0.0212-0.11642 0.0318-0.16933 0.0318-0.0635 0-0.11642-0.0106-0.14817-0.0423-0.01058-0.0529-0.02117-0.13758-0.02117-0.24342 0-0.254 0.03175-0.58208 0.07408-0.66675 0.0635-0.16933 0.22225-0.254 0.37042-0.254 0.10583 0 0.21167 0.0423 0.28575 0.13759 0.05292 0.0529 0.05292 0.23283 0.05292 0.41275z"/>
</g>
</g>
</g>
</svg>
