<?xml version="1.0" encoding="UTF-8" standalone="no"?>
<!-- Created with Inkscape (http://www.inkscape.org/) -->

<svg
   xmlns:dc="http://purl.org/dc/elements/1.1/"
   xmlns:cc="http://creativecommons.org/ns#"
   xmlns:rdf="http://www.w3.org/1999/02/22-rdf-syntax-ns#"
   xmlns:svg="http://www.w3.org/2000/svg"
   xmlns="http://www.w3.org/2000/svg"
   xmlns:sodipodi="http://sodipodi.sourceforge.net/DTD/sodipodi-0.dtd"
   xmlns:inkscape="http://www.inkscape.org/namespaces/inkscape"
   width="92.604164mm"
   height="29.104166mm"
   viewBox="0 0 92.604164 29.104166"
   version="1.1"
   id="svg8"
   inkscape:version="0.92.5 (2060ec1f9f, 2020-04-08)"
   sodipodi:docname="menu-arrow.svg">
  <defs
     id="defs2" />
  <sodipodi:namedview
     id="base"
     pagecolor="#ffffff"
     bordercolor="#666666"
     borderopacity="1.0"
     inkscape:pageopacity="0.0"
     inkscape:pageshadow="2"
     inkscape:zoom="5.577143"
     inkscape:cx="175"
     inkscape:cy="54.999999"
     inkscape:document-units="mm"
     inkscape:current-layer="text829"
     showgrid="false"
     fit-margin-top="0"
     fit-margin-left="0"
     fit-margin-right="0"
     fit-margin-bottom="0"
     inkscape:window-width="2560"
     inkscape:window-height="1337"
     inkscape:window-x="1920"
     inkscape:window-y="28"
     inkscape:window-maximized="1" />
  <metadata
     id="metadata5">
    <rdf:RDF>
      <cc:Work
         rdf:about="">
        <dc:format>image/svg+xml</dc:format>
        <dc:type
           rdf:resource="http://purl.org/dc/dcmitype/StillImage" />
        <dc:title />
      </cc:Work>
    </rdf:RDF>
  </metadata>
  <g
     inkscape:label="Layer 1"
     inkscape:groupmode="layer"
     id="layer1"
     transform="translate(170.59348,-108.17944)">
    <path
       sodipodi:nodetypes="cscscscccscsccccccccscscsccccc"
       inkscape:connector-curvature="0"
       id="path977"
       d="m -169.24081,120.93771 c 0.0536,-0.27157 0.1498,-0.53296 0.21399,-0.58085 0.0641,-0.0479 0.15028,-0.22747 0.19127,-0.3993 0.0411,-0.17177 0.32086,-1.21085 0.62186,-2.30916 0.301,-1.09831 0.73054,-3.30768 0.95458,-4.90973 0.25566,-1.82844 0.53333,-3.00681 0.74584,-3.1653 0.80531,-0.6005 1.93164,-0.49078 1.67316,0.16312 -0.0519,0.13109 0.0481,0.32106 0.22186,0.42228 0.1738,0.10133 0.969,0.78533 1.76698,1.52027 0.79797,0.73497 2.03478,1.87452 2.74843,2.53234 0.71364,0.65783 1.52976,1.36654 1.81356,1.57492 1.95191,1.43302 2.37891,2.42603 1.3676,3.18018 -0.73266,0.54637 -1.18483,0.47511 -2.05795,-0.3244 -0.35367,-0.32381 -1.34141,-1.21342 -2.19501,-1.97692 -0.85359,-0.76349 -1.80688,-1.63192 -2.11845,-1.92989 -1.54504,-1.47758 -0.26574,1.8295 1.81724,4.69972 3.48832,4.47492 8.14826,7.91171 13.37655,10.1475 4.70487,1.96768 8.33624,2.86624 13.63762,3.37449 1.41137,0.13527 5.93907,-0.0269 7.25735,-0.26002 0.61528,-0.10864 1.18279,-0.18931 1.2616,-0.17601 0.28177,0.0404 2.64971,-0.44867 2.8339,-0.58604 0.37369,-0.27865 0.55266,0.37037 0.23905,0.86653 -0.57638,0.91159 -3.35359,1.7887 -6.02629,1.90317 -0.33918,0.0147 -1.26941,0.0726 -2.0672,0.12935 -1.68006,0.11919 -1.37666,0.11716 -4.05265,0.027 -12.16356,-0.41003 -24.79569,-6.99261 -29.82879,-15.54378 -1.21487,-2.064 -1.29069,-2.13065 -1.53239,-1.34663 -0.85547,2.77501 -1.32164,3.51016 -2.32117,3.66058 -0.55143,0.0829 -0.66671,-0.0639 -0.54298,-0.69215 z"
       style="fill:#000000;stroke-width:1" />
    <g
       transform="translate(-156.85862,-10.11176)"
       id="g987">
      <g
         aria-label="select other"
         style="font-style:normal;font-weight:normal;font-size:10.58333302px;line-height:1;font-family:sans-serif;text-align:center;letter-spacing:0px;word-spacing:0px;text-anchor:middle;fill:#000000;fill-opacity:1;stroke:none;stroke-width:0.26458332"
         id="text981">
        <path
           d="m 25.877541,131.95748 c -0.09525,0.37042 -0.116417,0.3175 -0.116417,0.85725 0,0.60325 0.0635,0.83608 0.53975,1.56633 0.47625,0.91017 0.66675,1.3335 0.66675,1.70392 v 0.16933 c 0,0.23284 -0.0635,0.52917 -0.73025,0.55034 -0.423333,0.0212 -0.66675,0.0741 -0.66675,0.254 -0.01058,0.0317 -0.02117,0.0529 -0.02117,0.0741 0,0.0741 0.07408,0.10583 0.211667,0.15875 0.179917,0.0741 0.624417,0.10583 1.037167,0.10583 0.296333,0 0.5715,-0.0212 0.719666,-0.0423 0.624417,-0.16933 1.037167,-0.60325 1.037167,-1.15358 0,-0.0318 -0.01058,-0.0741 -0.01058,-0.11642 0,-0.37042 -0.1905,-0.79375 -0.73025,-1.70392 -0.508,-0.87841 -0.677334,-1.18533 -0.677334,-1.5875 0,-0.0635 0,-0.13758 0.01058,-0.22225 0,-0.30691 0.04233,-0.6985 0.73025,-0.73025 0.402166,-0.0212 0.550333,-0.0423 0.550333,-0.15875 0,-0.0212 0,-0.0423 -0.01058,-0.0741 -0.0635,-0.127 -0.359834,-0.254 -0.963084,-0.254 -0.60325,0 -1.090083,0.0106 -1.576916,0.60325 z"
           style="font-style:normal;font-variant:normal;font-weight:normal;font-stretch:normal;line-height:0;font-family:Ludicrous;-inkscape-font-specification:Ludicrous;text-align:center;text-anchor:middle;stroke-width:0.26458332"
           id="path872"
           inkscape:connector-curvature="0" />
        <path
           d="m 29.708707,132.22206 c -0.179917,0.15875 -0.550334,1.10067 -0.550334,2.0955 0,0.62442 0.148167,1.27 0.60325,1.74625 0.338667,0.40217 0.740834,0.51859 1.481667,0.51859 0.5715,0 1.153583,-0.37042 1.153583,-0.78317 0,-0.1905 -0.05292,-0.254 -0.137583,-0.254 -0.116417,0 -0.28575,0.11642 -0.4445,0.20108 -0.08467,0.0106 -0.15875,0.0106 -0.22225,0.0106 -0.179917,0 -0.3175,-0.0423 -0.4445,-0.254 -0.22225,-0.33867 -0.34925,-0.762 -0.402167,-1.3335 0,-0.46567 0.137584,-0.4445 0.423334,-0.56092 0.645583,-0.20108 1.016,-0.5715 1.016,-0.97367 0,-0.16933 -0.0635,-0.33866 -0.201084,-0.508 -0.148166,-0.1905 -0.391583,-0.45508 -0.867833,-0.45508 -0.243417,0 -0.560917,0.0741 -0.9525,0.27517 -0.179917,0.0529 -0.402167,0.22225 -0.455083,0.27516 z m 1.68275,0.42334 c 0,0.28575 -0.105834,0.4445 -0.4445,0.62441 -0.05292,0.0212 -0.116417,0.0317 -0.169334,0.0317 -0.0635,0 -0.116416,-0.0106 -0.148166,-0.0423 -0.01058,-0.0529 -0.02117,-0.13758 -0.02117,-0.24342 0,-0.254 0.03175,-0.58208 0.07408,-0.66675 0.0635,-0.16933 0.22225,-0.254 0.370417,-0.254 0.105833,0 0.211667,0.0423 0.28575,0.13759 0.05292,0.0529 0.05292,0.23283 0.05292,0.41275 z"
           style="font-style:normal;font-variant:normal;font-weight:normal;font-stretch:normal;line-height:0;font-family:Ludicrous;-inkscape-font-specification:Ludicrous;text-align:center;text-anchor:middle;stroke-width:0.26458332"
           id="path874"
           inkscape:connector-curvature="0" />
        <path
           d="m 33.264705,129.69265 c -0.0635,0.0635 -0.137584,2.04258 -0.137584,4.14866 0,2.04259 0.07408,2.38125 0.402167,2.77284 0.127,0.127 0.47625,0.29633 0.85725,0.29633 0.22225,0 0.455083,-0.0635 0.656166,-0.23283 0.02117,-0.0529 0.04233,-0.0952 0.04233,-0.15875 0,-0.10584 -0.03175,-0.254 -0.105834,-0.56092 -0.0635,-0.52917 -0.137583,-0.85725 -0.137583,-3.16442 0,-2.30716 0,-2.57175 -0.127,-2.83633 -0.0635,-0.20108 -0.201083,-0.33867 -0.328083,-0.40217 -0.116417,-0.0741 -0.34925,-0.10583 -0.550333,-0.10583 -0.148167,0 -0.28575,0.0212 -0.370417,0.0423 -0.0635,0.0635 -0.201083,0.13759 -0.201083,0.20109 z"
           style="font-style:normal;font-variant:normal;font-weight:normal;font-stretch:normal;line-height:0;font-family:Ludicrous;-inkscape-font-specification:Ludicrous;text-align:center;text-anchor:middle;stroke-width:0.26458332"
           id="path876"
           inkscape:connector-curvature="0" />
        <path
           d="m 36.005783,132.22206 c -0.179917,0.15875 -0.550333,1.10067 -0.550333,2.0955 0,0.62442 0.148166,1.27 0.60325,1.74625 0.338666,0.40217 0.740833,0.51859 1.481666,0.51859 0.5715,0 1.153583,-0.37042 1.153583,-0.78317 0,-0.1905 -0.05292,-0.254 -0.137583,-0.254 -0.116417,0 -0.28575,0.11642 -0.4445,0.20108 -0.08467,0.0106 -0.15875,0.0106 -0.22225,0.0106 -0.179917,0 -0.3175,-0.0423 -0.4445,-0.254 -0.22225,-0.33867 -0.34925,-0.762 -0.402167,-1.3335 0,-0.46567 0.137584,-0.4445 0.423334,-0.56092 0.645583,-0.20108 1.016,-0.5715 1.016,-0.97367 0,-0.16933 -0.0635,-0.33866 -0.201084,-0.508 -0.148166,-0.1905 -0.391583,-0.45508 -0.867833,-0.45508 -0.243417,0 -0.560917,0.0741 -0.9525,0.27517 -0.179916,0.0529 -0.402166,0.22225 -0.455083,0.27516 z m 1.68275,0.42334 c 0,0.28575 -0.105834,0.4445 -0.4445,0.62441 -0.05292,0.0212 -0.116417,0.0317 -0.169334,0.0317 -0.0635,0 -0.116416,-0.0106 -0.148166,-0.0423 -0.01058,-0.0529 -0.02117,-0.13758 -0.02117,-0.24342 0,-0.254 0.03175,-0.58208 0.07408,-0.66675 0.0635,-0.16933 0.22225,-0.254 0.370417,-0.254 0.105833,0 0.211667,0.0423 0.28575,0.13759 0.05292,0.0529 0.05292,0.23283 0.05292,0.41275 z"
           style="font-style:normal;font-variant:normal;font-weight:normal;font-stretch:normal;line-height:0;font-family:Ludicrous;-inkscape-font-specification:Ludicrous;text-align:center;text-anchor:middle;stroke-width:0.26458332"
           id="path878"
           inkscape:connector-curvature="0" />
        <path
           d="m 39.868697,132.5819 c -0.1905,0.27516 -0.306917,0.46566 -0.4445,0.98425 -0.05292,0.32808 -0.08467,0.67733 -0.08467,1.016 0,0.53975 0.07408,1.03716 0.232834,1.397 0.254,0.49741 0.560916,0.75141 1.259416,0.75141 h 0.254 c 0.656167,0 0.994834,-0.23283 1.3335,-0.81491 0.105834,-0.1905 0.15875,-0.3175 0.15875,-0.41275 0,-0.127 -0.105833,-0.1905 -0.296333,-0.26459 -0.03175,-0.0106 -0.0635,-0.0212 -0.09525,-0.0212 -0.1905,0 -0.370417,0.17991 -0.624417,0.41275 -0.09525,0.0847 -0.1905,0.127 -0.264583,0.127 -0.116417,0 -0.201083,-0.0741 -0.232833,-0.17992 -0.127,-0.3175 -0.179917,-0.56092 -0.179917,-1.02658 0,-0.127 0,-0.27517 0.01058,-0.45509 0.04233,-1.13241 0.127,-1.397 0.423334,-1.72508 0.0635,-0.0423 0.127,-0.0529 0.1905,-0.0529 0.116416,0 0.22225,0.0635 0.296333,0.21167 0.08467,0.0423 0.169333,0.0529 0.254,0.0529 0.179917,0 0.328083,-0.0741 0.328083,-0.1905 0,-0.0106 -0.01058,-0.0212 -0.01058,-0.0318 v -0.0106 c 0,-0.23283 -0.529167,-0.55033 -1.0795,-0.55033 -0.105833,0 -0.201083,0.0106 -0.306917,0.0317 -0.402166,0.10583 -0.8255,0.35983 -1.121833,0.75142 z"
           style="font-style:normal;font-variant:normal;font-weight:normal;font-stretch:normal;line-height:0;font-family:Ludicrous;-inkscape-font-specification:Ludicrous;text-align:center;text-anchor:middle;stroke-width:0.26458332"
           id="path880"
           inkscape:connector-curvature="0" />
        <path
           d="m 43.922109,130.03131 c -0.07408,0.14817 -0.22225,1.143 -0.296333,1.74625 -0.07408,0.381 -0.07408,0.381 -0.306917,0.381 -0.306916,0 -0.529166,0.15875 -0.60325,0.30692 0,0.14817 0.296334,0.29633 0.529167,0.29633 0.232833,0 0.22225,0 0.296333,1.59809 0.148167,1.82033 0.232834,2.19075 0.53975,2.42358 0.264584,0.26458 0.762,0.41275 1.227667,0.41275 0.211667,0 0.423333,-0.0318 0.592667,-0.10583 0.169333,-0.0635 0.254,-0.13759 0.254,-0.21167 0,-0.0847 -0.116417,-0.1905 -0.328084,-0.3175 -0.148166,-0.0741 -0.306916,-0.23283 -0.381,-0.30692 -0.07408,-0.23283 -0.15875,-1.59808 -0.232833,-2.96333 -0.02117,-0.21167 -0.03175,-0.35983 -0.03175,-0.47625 0,-0.35983 0.127,-0.381 0.645583,-0.43392 0.455084,0 0.677334,-0.0741 0.751417,-0.14816 0.0635,-0.0635 0.08467,-0.10584 0.08467,-0.14817 0,-0.127 -0.264584,-0.17992 -0.836084,-0.23283 -0.60325,0 -0.613833,0 -0.613833,-0.83609 0,-0.762 0,-0.98425 -0.07408,-1.05833 -0.105834,-0.0529 -0.433917,-0.10583 -0.709084,-0.10583 -0.105833,0 -0.211666,0.0106 -0.275166,0.0317 -0.07408,0.0741 -0.232834,0.14816 -0.232834,0.14816 z"
           style="font-style:normal;font-variant:normal;font-weight:normal;font-stretch:normal;line-height:0;font-family:Ludicrous;-inkscape-font-specification:Ludicrous;text-align:center;text-anchor:middle;stroke-width:0.26458332"
           id="path882"
           inkscape:connector-curvature="0" />
        <path
           d="m 50.462594,133.07931 c -0.22225,0.48684 -0.306917,0.79375 -0.306917,1.36525 0,0.5715 0.22225,1.28059 1.058334,1.66159 0.201083,0.0635 0.518583,0.0952 0.836083,0.0952 0.3175,0 0.635,-0.0318 0.8255,-0.0952 0.889,-0.3175 1.375833,-0.91017 1.375833,-1.74625 0,-0.0741 0,-0.15875 -0.01058,-0.23284 -0.04233,-0.61383 -0.47625,-1.22766 -1.04775,-1.49225 -0.15875,-0.0635 -0.243417,-0.10583 -0.391583,-0.10583 -0.0635,0 -0.137584,0.0106 -0.22225,0.0212 -0.296334,0 -0.381,-0.0106 -0.381,-0.0635 0,-0.0212 0.01058,-0.0423 0.02117,-0.0741 0.127,-0.16933 0.264584,-0.29633 0.486834,-0.39158 0.148166,-0.0741 0.232833,-0.127 0.232833,-0.17992 0,-0.0423 -0.05292,-0.0741 -0.148167,-0.11641 -0.05292,-0.0106 -0.127,-0.0212 -0.211666,-0.0212 -0.22225,0 -0.508,0.0317 -0.624417,0.0635 -0.5715,0.16933 -1.185333,0.74083 -1.49225,1.31233 z m 2.243667,1.70392 c -0.04233,0.22225 -0.179917,0.508 -0.5715,0.70908 h -0.02117 c -0.116417,0 -0.34925,-0.32808 -0.465667,-0.61383 -0.04233,-0.127 -0.0635,-0.24342 -0.0635,-0.37042 0,-0.1905 0.04233,-0.41275 0.116417,-0.77258 0.04233,-0.30692 0.211667,-0.87842 0.254,-0.87842 0,0 0.179917,0.13759 0.306917,0.30692 0.370416,0.37042 0.550333,0.70908 0.550333,1.09008 0,0.16934 -0.04233,0.33867 -0.105833,0.52917 z"
           style="font-style:normal;font-variant:normal;font-weight:normal;font-stretch:normal;line-height:0;font-family:Ludicrous;-inkscape-font-specification:Ludicrous;text-align:center;text-anchor:middle;stroke-width:0.26458332"
           id="path884"
           inkscape:connector-curvature="0" />
        <path
           d="m 55.330913,130.03131 c -0.07408,0.14817 -0.22225,1.143 -0.296333,1.74625 -0.07408,0.381 -0.07408,0.381 -0.306917,0.381 -0.306916,0 -0.529166,0.15875 -0.60325,0.30692 0,0.14817 0.296334,0.29633 0.529167,0.29633 0.232833,0 0.22225,0 0.296333,1.59809 0.148167,1.82033 0.232834,2.19075 0.53975,2.42358 0.264584,0.26458 0.762,0.41275 1.227667,0.41275 0.211667,0 0.423333,-0.0318 0.592667,-0.10583 0.169333,-0.0635 0.254,-0.13759 0.254,-0.21167 0,-0.0847 -0.116417,-0.1905 -0.328084,-0.3175 -0.148166,-0.0741 -0.306916,-0.23283 -0.381,-0.30692 -0.07408,-0.23283 -0.15875,-1.59808 -0.232833,-2.96333 -0.02117,-0.21167 -0.03175,-0.35983 -0.03175,-0.47625 0,-0.35983 0.127,-0.381 0.645583,-0.43392 0.455084,0 0.677334,-0.0741 0.751417,-0.14816 0.0635,-0.0635 0.08467,-0.10584 0.08467,-0.14817 0,-0.127 -0.264584,-0.17992 -0.836084,-0.23283 -0.60325,0 -0.613833,0 -0.613833,-0.83609 0,-0.762 0,-0.98425 -0.07408,-1.05833 -0.105834,-0.0529 -0.433917,-0.10583 -0.709084,-0.10583 -0.105833,0 -0.211666,0.0106 -0.275166,0.0317 -0.07408,0.0741 -0.232834,0.14816 -0.232834,0.14816 z"
           style="font-style:normal;font-variant:normal;font-weight:normal;font-stretch:normal;line-height:0;font-family:Ludicrous;-inkscape-font-specification:Ludicrous;text-align:center;text-anchor:middle;stroke-width:0.26458332"
           id="path886"
           inkscape:connector-curvature="0" />
        <path
           d="m 58.262483,132.28556 c -0.01058,1.2065 -0.02117,2.07434 -0.02117,2.69875 0,1.53459 0.05292,1.64042 0.275167,1.82034 0.105833,0.0741 0.34925,0.127 0.592666,0.127 0.08467,0 0.169334,-0.0106 0.243417,-0.0212 0.306917,-0.0423 0.5715,-0.34925 0.8255,-0.86783 0.105833,-0.254 0.296333,-0.77259 0.402167,-1.02659 0.28575,-0.70908 0.5715,-1.2065 0.645583,-1.2065 0.01058,0 0.02117,0 0.02117,0.0106 h 0.01058 c 0.01058,0 0.04233,0.0423 0.04233,0.42333 0,0.254 -0.01058,0.65617 -0.05292,1.28058 -0.02117,0.42334 -0.04233,0.75142 -0.04233,0.99484 0,0.79375 0.137584,0.84666 0.486834,0.84666 h 0.34925 c 0.381,0 0.402166,-0.0635 0.402166,-1.12183 v -0.5715 c -0.04233,-2.30717 -0.169333,-2.77283 -0.783166,-2.87867 -0.0635,-0.0106 -0.127,-0.0106 -0.179917,-0.0106 -0.582083,0 -1.037167,0.46567 -1.36525,1.35467 -0.04233,0.21166 -0.148167,0.35983 -0.148167,0.35983 v -0.67733 c 0.01058,-0.16934 0.01058,-0.381 0.01058,-0.62442 0,-1.12183 -0.07408,-2.83633 -0.15875,-3.175 -0.04233,-0.21167 -0.127,-0.42333 -0.169334,-0.46567 -0.148166,-0.16933 -0.423333,-0.27516 -0.687916,-0.27516 -0.116417,0 -0.243417,0.0212 -0.338667,0.0741 -0.306917,0.14817 -0.3175,0 -0.359833,2.93158 z"
           style="font-style:normal;font-variant:normal;font-weight:normal;font-stretch:normal;line-height:0;font-family:Ludicrous;-inkscape-font-specification:Ludicrous;text-align:center;text-anchor:middle;stroke-width:0.26458332"
           id="path888"
           inkscape:connector-curvature="0" />
        <path
           d="m 63.448311,132.22206 c -0.179917,0.15875 -0.550334,1.10067 -0.550334,2.0955 0,0.62442 0.148167,1.27 0.60325,1.74625 0.338667,0.40217 0.740834,0.51859 1.481667,0.51859 0.5715,0 1.153583,-0.37042 1.153583,-0.78317 0,-0.1905 -0.05292,-0.254 -0.137583,-0.254 -0.116417,0 -0.28575,0.11642 -0.4445,0.20108 -0.08467,0.0106 -0.15875,0.0106 -0.22225,0.0106 -0.179917,0 -0.3175,-0.0423 -0.4445,-0.254 -0.22225,-0.33867 -0.34925,-0.762 -0.402167,-1.3335 0,-0.46567 0.137584,-0.4445 0.423334,-0.56092 0.645583,-0.20108 1.016,-0.5715 1.016,-0.97367 0,-0.16933 -0.0635,-0.33866 -0.201084,-0.508 -0.148166,-0.1905 -0.391583,-0.45508 -0.867833,-0.45508 -0.243417,0 -0.560917,0.0741 -0.9525,0.27517 -0.179917,0.0529 -0.402167,0.22225 -0.455083,0.27516 z m 1.68275,0.42334 c 0,0.28575 -0.105834,0.4445 -0.4445,0.62441 -0.05292,0.0212 -0.116417,0.0317 -0.169334,0.0317 -0.0635,0 -0.116416,-0.0106 -0.148166,-0.0423 -0.01058,-0.0529 -0.02117,-0.13758 -0.02117,-0.24342 0,-0.254 0.03175,-0.58208 0.07408,-0.66675 0.0635,-0.16933 0.22225,-0.254 0.370417,-0.254 0.105833,0 0.211667,0.0423 0.28575,0.13759 0.05292,0.0529 0.05292,0.23283 0.05292,0.41275 z"
           style="font-style:normal;font-variant:normal;font-weight:normal;font-stretch:normal;line-height:0;font-family:Ludicrous;-inkscape-font-specification:Ludicrous;text-align:center;text-anchor:middle;stroke-width:0.26458332"
           id="path890"
           inkscape:connector-curvature="0" />
        <path
           d="m 66.845557,131.70348 c -0.0635,0.0423 -0.105833,0.0635 -0.105833,0.15875 0,0.0952 0.04233,0.27517 0.105833,0.62442 0.08467,0.37041 0.127,1.98966 0.127,3.048 0,0.64558 0,0.64558 0.1905,0.78316 0.07408,0.0529 0.359833,0.0952 0.656167,0.0952 0.211666,0 0.433916,-0.0317 0.582083,-0.0952 0.127,-0.0953 0.169333,-0.11641 0.169333,-0.3175 0,-0.0953 -0.01058,-0.24341 -0.03175,-0.46566 0,-0.45509 0,-0.68792 0.05292,-0.8255 0.455083,-1.23825 0.486833,-1.78859 1.61925,-2.21192 0.15875,-0.0952 0.22225,-0.13758 0.22225,-0.21167 0,-0.0212 -0.01058,-0.0635 -0.04233,-0.10583 -0.09525,-0.0952 -0.3175,-0.22225 -0.624417,-0.22225 -0.148167,0 -0.3175,0.0317 -0.497417,0.10583 -0.497416,0.22225 -0.582083,0.61384 -0.772583,0.84667 -0.02117,0.0529 -0.03175,0.0847 -0.04233,0.0847 -0.01058,0 -0.02117,-0.0847 -0.05292,-0.27517 -0.05292,-0.13758 -0.04233,-0.70908 -0.455083,-1.05833 -0.137584,-0.0635 -0.433917,-0.11642 -0.645584,-0.11642 -0.07408,0 -0.137583,0.0106 -0.1905,0.0212 -0.08467,0.0529 -0.211666,0.0847 -0.264583,0.13758 z"
           style="font-style:normal;font-variant:normal;font-weight:normal;font-stretch:normal;line-height:0;font-family:Ludicrous;-inkscape-font-specification:Ludicrous;text-align:center;text-anchor:middle;stroke-width:0.26458332"
           id="path892"
           inkscape:connector-curvature="0" />
      </g>
      <g
         aria-label="views here"
         style="font-style:normal;font-weight:normal;font-size:10.58333302px;line-height:1;font-family:sans-serif;text-align:center;letter-spacing:0px;word-spacing:0px;text-anchor:middle;fill:#000000;fill-opacity:1;stroke:none;stroke-width:0.26458332"
         id="text985">
        <path
           d="m 39.765919,142.47935 c 0.05292,0.32809 0.592667,2.93159 0.6985,3.25967 0.07408,0.14817 0.338667,0.32808 0.8255,0.32808 0.201084,0 0.455084,-0.0318 0.751417,-0.11641 0.328083,-0.15875 0.328083,-0.21167 0.486833,-1.0795 0.05292,-0.27517 0.814917,-3.25967 0.814917,-3.53484 0,-0.254 -0.1905,-0.49741 -0.423333,-0.49741 -0.127,0 -0.264584,0.0635 -0.391584,0.23283 -0.105833,0.21167 -0.497416,1.51342 -0.709083,2.27542 -0.05292,0.21166 -0.105833,0.43391 -0.15875,0.43391 0,0 -0.05292,-0.21166 -0.105833,-0.48683 -0.105834,-0.59267 -0.550334,-1.905 -0.709084,-2.11667 -0.05292,-0.10583 -0.15875,-0.22225 -0.211666,-0.27516 -0.04233,-0.0212 -0.169334,-0.0318 -0.3175,-0.0318 -0.211667,0 -0.455084,0.0212 -0.550334,0.0847 -0.137583,0.0529 -0.201083,0.14817 -0.201083,0.37042 0,0.22225 0.0635,0.58208 0.201083,1.15358 z"
           style="font-style:normal;font-variant:normal;font-weight:normal;font-stretch:normal;line-height:0;font-family:Ludicrous;-inkscape-font-specification:Ludicrous;text-align:center;text-anchor:middle;stroke-width:0.26458332"
           id="path895"
           inkscape:connector-curvature="0" />
        <path
           d="m 44.04157,139.63244 c -0.01058,0.0635 -0.02117,0.127 -0.02117,0.17991 0,0.10584 0.03175,0.17992 0.09525,0.21167 0.116417,0.0847 0.28575,0.127 0.455083,0.127 0.243417,0 0.497417,-0.0741 0.635,-0.20108 0.07408,-0.10584 0.116417,-0.27517 0.116417,-0.43392 0,-0.13758 -0.03175,-0.26458 -0.08467,-0.33867 -0.0635,-0.0635 -0.105833,-0.0847 -0.1905,-0.0847 -0.0635,0 -0.148166,0.0106 -0.28575,0.0212 -0.254,0.0212 -0.66675,0.0317 -0.719666,0.51859 z m -0.03175,2.40241 c -0.0635,0.6985 -0.09525,1.3335 -0.09525,1.88384 0,0.81491 0.0635,1.41816 0.179916,1.66158 0.08467,0.24342 0.243417,0.53975 0.624417,0.53975 0.169333,0 0.381,-0.0635 0.645583,-0.20108 0.0635,-0.0847 0.08467,-0.13759 0.08467,-0.41275 0,-0.15875 -0.01058,-0.39159 -0.02117,-0.75142 -0.03175,-0.41275 -0.04233,-0.84667 -0.04233,-1.16417 0,-0.15875 0,-0.28575 0.01058,-0.37041 0.01058,-0.32809 0.01058,-0.60325 0.01058,-0.84667 0,-0.91017 -0.0635,-1.27 -0.28575,-1.43933 -0.05292,-0.0529 -0.169334,-0.0741 -0.296334,-0.0741 -0.15875,0 -0.338666,0.0318 -0.4445,0.11642 -0.148166,0.0741 -0.338666,0.127 -0.370416,1.05833 z"
           style="font-style:normal;font-variant:normal;font-weight:normal;font-stretch:normal;line-height:0;font-family:Ludicrous;-inkscape-font-specification:Ludicrous;text-align:center;text-anchor:middle;stroke-width:0.26458332"
           id="path897"
           inkscape:connector-curvature="0" />
        <path
           d="m 46.518055,141.33635 c -0.179917,0.15875 -0.550333,1.10067 -0.550333,2.0955 0,0.62442 0.148166,1.27 0.60325,1.74625 0.338666,0.40217 0.740833,0.51859 1.481666,0.51859 0.5715,0 1.153584,-0.37042 1.153584,-0.78317 0,-0.1905 -0.05292,-0.254 -0.137584,-0.254 -0.116416,0 -0.28575,0.11642 -0.4445,0.20108 -0.08467,0.0106 -0.15875,0.0106 -0.22225,0.0106 -0.179916,0 -0.3175,-0.0423 -0.4445,-0.254 -0.22225,-0.33867 -0.34925,-0.762 -0.402166,-1.3335 0,-0.46567 0.137583,-0.4445 0.423333,-0.56092 0.645583,-0.20108 1.016,-0.5715 1.016,-0.97367 0,-0.16933 -0.0635,-0.33866 -0.201083,-0.508 -0.148167,-0.1905 -0.391584,-0.45508 -0.867834,-0.45508 -0.243416,0 -0.560916,0.0741 -0.9525,0.27517 -0.179916,0.0529 -0.402166,0.22225 -0.455083,0.27516 z m 1.68275,0.42334 c 0,0.28575 -0.105833,0.4445 -0.4445,0.62441 -0.05292,0.0212 -0.116417,0.0318 -0.169333,0.0318 -0.0635,0 -0.116417,-0.0106 -0.148167,-0.0423 -0.01058,-0.0529 -0.02117,-0.13758 -0.02117,-0.24342 0,-0.254 0.03175,-0.58208 0.07408,-0.66675 0.0635,-0.16933 0.22225,-0.254 0.370416,-0.254 0.105834,0 0.211667,0.0423 0.28575,0.13759 0.05292,0.0529 0.05292,0.23283 0.05292,0.41275 z"
           style="font-style:normal;font-variant:normal;font-weight:normal;font-stretch:normal;line-height:0;font-family:Ludicrous;-inkscape-font-specification:Ludicrous;text-align:center;text-anchor:middle;stroke-width:0.26458332"
           id="path899"
           inkscape:connector-curvature="0" />
        <path
           d="m 49.756553,142.1301 c 0.116417,2.57175 0.402167,3.63009 1.04775,3.86292 0.07408,0 0.243416,0.0423 0.41275,0.0423 0.08467,0 0.15875,-0.0106 0.232833,-0.0423 0.359833,-0.0741 0.402167,-0.27517 0.508,-0.53975 0.0635,-0.17992 0.508,-0.87842 0.624417,-0.87842 0.0635,0 0.402166,1.016 1.058333,1.016 h 0.02117 c 0.359833,0 0.529166,-0.17991 0.592666,-0.59266 0.0635,-0.34925 0.370417,-2.31775 0.370417,-2.61409 v -0.14816 c 0,-0.381 -0.03175,-0.67734 -0.592667,-0.67734 h -0.05292 c -0.381,0.0106 -0.53975,0.0847 -0.53975,0.35984 0,0.0529 0,0.10583 0.01058,0.16933 0,0.40217 -0.127,2.032 -0.1905,2.032 0,0 -0.306917,-0.68792 -0.5715,-0.73025 -0.03175,-0.0106 -0.0635,-0.0106 -0.09525,-0.0106 -0.28575,0 -0.41275,0.254 -0.73025,0.62441 -0.127,0.15875 -0.201083,0.27517 -0.254,0.27517 -0.09525,0 -0.127,-0.33867 -0.275167,-1.43933 -0.116416,-1.17475 -0.232833,-1.70392 -0.34925,-1.82034 -0.07408,-0.0741 -0.359833,-0.11641 -0.634999,-0.11641 -0.169334,0 -0.328084,0.0212 -0.423334,0.0635 -0.127,0.0423 -0.1905,0.11641 -0.1905,0.53975 0,0.14816 0,0.35983 0.02117,0.62441 z"
           style="font-style:normal;font-variant:normal;font-weight:normal;font-stretch:normal;line-height:0;font-family:Ludicrous;-inkscape-font-specification:Ludicrous;text-align:center;text-anchor:middle;stroke-width:0.26458332"
           id="path901"
           inkscape:connector-curvature="0" />
        <path
           d="m 55.333969,141.07177 c -0.09525,0.37042 -0.116417,0.3175 -0.116417,0.85725 0,0.60325 0.0635,0.83608 0.53975,1.56633 0.47625,0.91017 0.66675,1.3335 0.66675,1.70392 v 0.16933 c 0,0.23284 -0.0635,0.52917 -0.73025,0.55034 -0.423333,0.0212 -0.66675,0.0741 -0.66675,0.254 -0.01058,0.0317 -0.02117,0.0529 -0.02117,0.0741 0,0.0741 0.07408,0.10583 0.211666,0.15875 0.179917,0.0741 0.624417,0.10583 1.037167,0.10583 0.296333,0 0.5715,-0.0212 0.719666,-0.0423 0.624417,-0.16933 1.037167,-0.60325 1.037167,-1.15358 0,-0.0317 -0.01058,-0.0741 -0.01058,-0.11642 0,-0.37042 -0.1905,-0.79375 -0.73025,-1.70392 -0.508,-0.87841 -0.677333,-1.18533 -0.677333,-1.5875 0,-0.0635 0,-0.13758 0.01058,-0.22225 0,-0.30691 0.04233,-0.6985 0.73025,-0.73025 0.402166,-0.0212 0.550333,-0.0423 0.550333,-0.15875 0,-0.0212 0,-0.0423 -0.01058,-0.0741 -0.0635,-0.127 -0.359834,-0.254 -0.963083,-0.254 -0.60325,0 -1.090084,0.0106 -1.576917,0.60325 z"
           style="font-style:normal;font-variant:normal;font-weight:normal;font-stretch:normal;line-height:0;font-family:Ludicrous;-inkscape-font-specification:Ludicrous;text-align:center;text-anchor:middle;stroke-width:0.26458332"
           id="path903"
           inkscape:connector-curvature="0" />
        <path
           d="m 61.832127,141.39985 c -0.01058,1.2065 -0.02117,2.07434 -0.02117,2.69875 0,1.53459 0.05292,1.64042 0.275167,1.82034 0.105833,0.0741 0.34925,0.127 0.592666,0.127 0.08467,0 0.169333,-0.0106 0.243417,-0.0212 0.306916,-0.0423 0.5715,-0.34925 0.8255,-0.86783 0.105833,-0.254 0.296333,-0.77259 0.402166,-1.02659 0.28575,-0.70908 0.5715,-1.2065 0.645584,-1.2065 0.01058,0 0.02117,0 0.02117,0.0106 h 0.01058 c 0.01058,0 0.04233,0.0423 0.04233,0.42333 0,0.254 -0.01058,0.65617 -0.05292,1.28058 -0.02117,0.42334 -0.04233,0.75142 -0.04233,0.99484 0,0.79375 0.137583,0.84666 0.486833,0.84666 h 0.34925 c 0.381,0 0.402167,-0.0635 0.402167,-1.12183 v -0.5715 c -0.04233,-2.30717 -0.169333,-2.77283 -0.783167,-2.87867 -0.0635,-0.0106 -0.127,-0.0106 -0.179916,-0.0106 -0.582084,0 -1.037167,0.46567 -1.36525,1.35467 -0.04233,0.21166 -0.148167,0.35983 -0.148167,0.35983 v -0.67733 c 0.01058,-0.16934 0.01058,-0.381 0.01058,-0.62442 0,-1.12183 -0.07408,-2.83633 -0.15875,-3.175 -0.04233,-0.21167 -0.127,-0.42333 -0.169333,-0.46567 -0.148167,-0.16933 -0.423333,-0.27516 -0.687917,-0.27516 -0.116416,0 -0.243416,0.0212 -0.338666,0.0741 -0.306917,0.14817 -0.3175,0 -0.359833,2.93158 z"
           style="font-style:normal;font-variant:normal;font-weight:normal;font-stretch:normal;line-height:0;font-family:Ludicrous;-inkscape-font-specification:Ludicrous;text-align:center;text-anchor:middle;stroke-width:0.26458332"
           id="path905"
           inkscape:connector-curvature="0" />
        <path
           d="m 67.017954,141.33635 c -0.179916,0.15875 -0.550333,1.10067 -0.550333,2.0955 0,0.62442 0.148167,1.27 0.60325,1.74625 0.338667,0.40217 0.740833,0.51859 1.481667,0.51859 0.5715,0 1.153583,-0.37042 1.153583,-0.78317 0,-0.1905 -0.05292,-0.254 -0.137583,-0.254 -0.116417,0 -0.28575,0.11642 -0.4445,0.20108 -0.08467,0.0106 -0.15875,0.0106 -0.22225,0.0106 -0.179917,0 -0.3175,-0.0423 -0.4445,-0.254 -0.22225,-0.33867 -0.34925,-0.762 -0.402167,-1.3335 0,-0.46567 0.137583,-0.4445 0.423333,-0.56092 0.645584,-0.20108 1.016,-0.5715 1.016,-0.97367 0,-0.16933 -0.0635,-0.33866 -0.201083,-0.508 -0.148167,-0.1905 -0.391583,-0.45508 -0.867833,-0.45508 -0.243417,0 -0.560917,0.0741 -0.9525,0.27517 -0.179917,0.0529 -0.402167,0.22225 -0.455084,0.27516 z m 1.68275,0.42334 c 0,0.28575 -0.105833,0.4445 -0.4445,0.62441 -0.05292,0.0212 -0.116416,0.0318 -0.169333,0.0318 -0.0635,0 -0.116417,-0.0106 -0.148167,-0.0423 -0.01058,-0.0529 -0.02117,-0.13758 -0.02117,-0.24342 0,-0.254 0.03175,-0.58208 0.07408,-0.66675 0.0635,-0.16933 0.22225,-0.254 0.370417,-0.254 0.105833,0 0.211666,0.0423 0.28575,0.13759 0.05292,0.0529 0.05292,0.23283 0.05292,0.41275 z"
           style="font-style:normal;font-variant:normal;font-weight:normal;font-stretch:normal;line-height:0;font-family:Ludicrous;-inkscape-font-specification:Ludicrous;text-align:center;text-anchor:middle;stroke-width:0.26458332"
           id="path907"
           inkscape:connector-curvature="0" />
        <path
           d="m 70.415201,140.81777 c -0.0635,0.0423 -0.105834,0.0635 -0.105834,0.15875 0,0.0952 0.04233,0.27517 0.105834,0.62442 0.08467,0.37041 0.127,1.98966 0.127,3.048 0,0.64558 0,0.64558 0.1905,0.78316 0.07408,0.0529 0.359833,0.0953 0.656166,0.0953 0.211667,0 0.433917,-0.0318 0.582084,-0.0953 0.127,-0.0952 0.169333,-0.11641 0.169333,-0.3175 0,-0.0952 -0.01058,-0.24341 -0.03175,-0.46566 0,-0.45509 0,-0.68792 0.05292,-0.8255 0.455083,-1.23825 0.486833,-1.78859 1.61925,-2.21192 0.15875,-0.0953 0.22225,-0.13758 0.22225,-0.21167 0,-0.0212 -0.01058,-0.0635 -0.04233,-0.10583 -0.09525,-0.0952 -0.3175,-0.22225 -0.624416,-0.22225 -0.148167,0 -0.3175,0.0318 -0.497417,0.10583 -0.497417,0.22225 -0.582083,0.61384 -0.772583,0.84667 -0.02117,0.0529 -0.03175,0.0847 -0.04233,0.0847 -0.01058,0 -0.02117,-0.0847 -0.05292,-0.27517 -0.05292,-0.13758 -0.04233,-0.70908 -0.455084,-1.05833 -0.137583,-0.0635 -0.433916,-0.11642 -0.645583,-0.11642 -0.07408,0 -0.137583,0.0106 -0.1905,0.0212 -0.08467,0.0529 -0.211667,0.0847 -0.264583,0.13758 z"
           style="font-style:normal;font-variant:normal;font-weight:normal;font-stretch:normal;line-height:0;font-family:Ludicrous;-inkscape-font-specification:Ludicrous;text-align:center;text-anchor:middle;stroke-width:0.26458332"
           id="path909"
           inkscape:connector-curvature="0" />
        <path
           d="m 74.659102,141.33635 c -0.179917,0.15875 -0.550333,1.10067 -0.550333,2.0955 0,0.62442 0.148166,1.27 0.60325,1.74625 0.338666,0.40217 0.740833,0.51859 1.481666,0.51859 0.5715,0 1.153584,-0.37042 1.153584,-0.78317 0,-0.1905 -0.05292,-0.254 -0.137584,-0.254 -0.116416,0 -0.28575,0.11642 -0.4445,0.20108 -0.08467,0.0106 -0.15875,0.0106 -0.22225,0.0106 -0.179916,0 -0.3175,-0.0423 -0.4445,-0.254 -0.22225,-0.33867 -0.34925,-0.762 -0.402166,-1.3335 0,-0.46567 0.137583,-0.4445 0.423333,-0.56092 0.645583,-0.20108 1.016,-0.5715 1.016,-0.97367 0,-0.16933 -0.0635,-0.33866 -0.201083,-0.508 -0.148167,-0.1905 -0.391584,-0.45508 -0.867834,-0.45508 -0.243416,0 -0.560916,0.0741 -0.9525,0.27517 -0.179916,0.0529 -0.402166,0.22225 -0.455083,0.27516 z m 1.68275,0.42334 c 0,0.28575 -0.105833,0.4445 -0.4445,0.62441 -0.05292,0.0212 -0.116417,0.0318 -0.169333,0.0318 -0.0635,0 -0.116417,-0.0106 -0.148167,-0.0423 -0.01058,-0.0529 -0.02117,-0.13758 -0.02117,-0.24342 0,-0.254 0.03175,-0.58208 0.07408,-0.66675 0.0635,-0.16933 0.22225,-0.254 0.370416,-0.254 0.105834,0 0.211667,0.0423 0.28575,0.13759 0.05292,0.0529 0.05292,0.23283 0.05292,0.41275 z"
           style="font-style:normal;font-variant:normal;font-weight:normal;font-stretch:normal;line-height:0;font-family:Ludicrous;-inkscape-font-specification:Ludicrous;text-align:center;text-anchor:middle;stroke-width:0.26458332"
           id="path911"
           inkscape:connector-curvature="0" />
      </g>
    </g>
    <g
       aria-label="select other views here"
       style="font-style:normal;font-weight:normal;font-size:10.58333302px;line-height:1.25;font-family:sans-serif;text-align:center;letter-spacing:0px;word-spacing:0px;text-anchor:middle;fill:#000000;fill-opacity:1;stroke:none;stroke-width:0.26458332"
       id="text829" />
  </g>
</svg>
