<?xml version="1.0" encoding="UTF-8"?>
<svg version="1.1" viewBox="0 0 24 24" xmlns="http://www.w3.org/2000/svg">
<g transform="matrix(3.7889 0 0 3.7413 -18.857 -1092.2)" fill="#fff" stroke="#000" stroke-linecap="round" stroke-linejoin="round" stroke-width=".087842">
<path d="m1.9751 292.3 0.42607 0.17081-0.28266 0.70504-0.13476-0.26597-0.29131 0.0952z"/>
<path d="m2.6427 292.3-0.42607 0.17081 0.28266 0.70504 0.13476-0.26597 0.29131 0.0952z"/>
</g>
<path transform="matrix(3.73 1.8843 -1.8603 3.6837 524.7 -1079.9)" d="m2.7651 292.64c-0.026199 0.0255-0.14879 4e-3 -0.18158 0.0205-0.032791 0.0161-0.090829 0.12617-0.127 0.13138-0.036173 5e-3 -0.12293-0.0839-0.15894-0.0902-0.036014-6e-3 -0.14764 0.0487-0.17997 0.0317-0.03233-0.0171-0.050113-0.14017-0.075594-0.16637s-0.14806-0.0474-0.1642-0.0802 0.041845-0.14285 0.03663-0.17903c-0.00522-0.0362-0.091927-0.12537-0.085709-0.16138 0.00622-0.036 0.11782-0.091 0.13486-0.12331 0.017042-0.0323-6.789e-4 -0.15546 0.02552-0.18094 0.026199-0.0255 0.14879-4e-3 0.18158-0.0205 0.032791-0.0161 0.090829-0.12617 0.127-0.13139 0.036172-5e-3 0.12293 0.0839 0.15894 0.0902 0.036014 6e-3 0.14764-0.0487 0.17997-0.0316 0.03233 0.017 0.050113 0.14016 0.075594 0.16636s0.14806 0.0474 0.1642 0.0802c0.016138 0.0328-0.041845 0.14285-0.036629 0.17902 0.00522 0.0362 0.091927 0.12537 0.085709 0.16139-0.00622 0.036-0.11782 0.091-0.13486 0.1233-0.017042 0.0323 6.789e-4 0.15546-0.02552 0.18094z" stroke="#000" stroke-linecap="round" stroke-linejoin="round" stroke-width=".031856"/>
<ellipse cx="-10.109" cy="1.1009" rx="1.2493" ry="1.2495" fill="#fff"/>
<circle cx="-10.115" cy="1.1342" r="1.4195" stroke="#fff" stroke-linecap="round" stroke-linejoin="round" stroke-width=".26458"/>
<path d="m17.91 12.502a0.62514 0.62514 0 0 0-0.50941 0.86379l2.3477 5.7881-2.9014-0.93762a0.62514 0.62514 0 0 0-0.74566 0.31008l-1.3068 2.5545-2.1927-5.4042a0.62514 0.62514 0 0 0-1.1886 0.08121 0.62514 0.62514 0 0 0-0.13289 0.20672l-2.0746 5.1089-1.3068-2.5471a0.62514 0.62514 0 0 0-0.74566-0.31008l-2.9014 0.93762 2.1558-5.3009a0.62585 0.62585 0 1 0-1.1591-0.4725l-2.6578 6.5412a0.62514 0.62514 0 0 0 0.7752 0.82688l3.6619-1.1812 1.6907 3.2854a0.62514 0.62514 0 0 0 1.137-0.0443l2.141-5.2861 2.1484 5.2861a0.62514 0.62514 0 0 0 1.137 0.0443l1.6907-3.2854 3.6619 1.1812a0.62514 0.62514 0 0 0 0.7752-0.82688l-2.8498-7.0211a0.62514 0.62514 0 0 0-0.64969-0.39867z" color="#000000" color-rendering="auto" dominant-baseline="auto" image-rendering="auto" shape-rendering="auto" solid-color="#000000" style="font-feature-settings:normal;font-variant-alternates:normal;font-variant-caps:normal;font-variant-ligatures:normal;font-variant-numeric:normal;font-variant-position:normal;isolation:auto;mix-blend-mode:normal;shape-padding:0;text-decoration-color:#000000;text-decoration-line:none;text-decoration-style:solid;text-indent:0;text-orientation:mixed;text-transform:none;white-space:normal"/>
<path d="m9.5629 0.64811c-0.11345-0.017165-0.22567-0.012277-0.33598 0.021486-0.88279 0.27069-0.78061 2.1153-1.5334 2.6449-0.75293 0.52986-2.4809-0.17142-3.0297 0.56453-0.5486 0.73567 0.62681 2.1813 0.33598 3.0512-0.291 0.87033-2.0968 1.3068-2.1018 2.2268-0.00431 0.91855 1.7944 1.411 2.0764 2.2893 0.28163 0.87922-0.90753 2.2882-0.36723 3.0414 0.54102 0.75179 2.2796 0.09913 3.0238 0.65633 0.74706 0.55157 0.62696 2.3927 1.506 2.6917 0.87973 0.29778 1.8904-1.2455 2.8168-1.2306 0.92997 0.0076 1.9225 1.5808 2.805 1.3107l-0.0059 0.01368c0.88281-0.27069 0.78061-2.1173 1.5334-2.6468 0.75212-0.52827 2.4809 0.17337 3.0297-0.56257 0.54867-0.73581-0.62485-2.1813-0.33403-3.0512 0.291-0.87033 2.0948-1.3068 2.0999-2.2268 0.0043-0.91855-1.7944-1.413-2.0764-2.2913-0.28166-0.87907 0.9083-2.2876 0.36728-3.0394-0.54102-0.75179-2.2796-0.099136-3.0238-0.65633-0.74706-0.55157-0.62697-2.3927-1.506-2.6917-0.87974-0.29779-1.8897 1.2421-2.8168 1.2287-0.80734-0.019298-1.6691-1.2238-2.4632-1.3439zm2.4105 3.098c3.1346 0 5.6921 2.5576 5.6921 5.6921 1e-6 3.1346-2.5576 5.6863-5.6921 5.6863-3.1346 0-5.6843-2.5517-5.6843-5.6863 0-3.1346 2.5497-5.6921 5.6843-5.6921zm0 1.004c-2.5941 0-4.6803 2.094-4.6803 4.6881-3e-7 2.594 2.0862 4.6822 4.6803 4.6822 2.5941 0 4.6881-2.0882 4.6881-4.6822 0-2.5941-2.094-4.6881-4.6881-4.6881z"/>
<g transform="matrix(3.7889 0 0 3.7413 25.786 -1090.7)" fill="#fff" stroke="#000" stroke-linecap="round" stroke-linejoin="round" stroke-width=".087842">
<path d="m1.9751 292.3 0.42607 0.17081-0.28266 0.70504-0.13476-0.26597-0.29131 0.0952z"/>
<path d="m2.6427 292.3-0.42607 0.17081 0.28266 0.70504 0.13476-0.26597 0.29131 0.0952z"/>
</g>
<path transform="matrix(3.8683 1.9542 -1.9293 3.8202 589.16 -1118.5)" d="m2.7651 292.64c-0.040653 0.0395-0.13807-0.0195-0.18895 6e-3 -0.050882 0.025-0.0635 0.13827-0.11963 0.14636-0.05613 8e-3 -0.10022-0.097-0.1561-0.10661-0.055883-0.01-0.13265 0.0745-0.18281 0.0481-0.050167-0.0265-0.024087-0.13735-0.063626-0.17801-0.039539-0.0406-0.15113-0.0177-0.17617-0.0685-0.025041-0.0509 0.061246-0.12528 0.053153-0.18141-0.00809-0.0561-0.11188-0.10312-0.10223-0.159 0.00965-0.0559 0.12318-0.0653 0.14963-0.11552 0.026445-0.0502-0.029902-0.14919 0.010751-0.18873 0.040653-0.0395 0.13807 0.0195 0.18895-5e-3 0.050882-0.0251 0.0635-0.13828 0.11963-0.14637 0.056129-8e-3 0.10022 0.097 0.1561 0.10661 0.055883 0.01 0.13265-0.0745 0.18281-0.0481 0.050167 0.0264 0.024087 0.13735 0.063626 0.178 0.039539 0.0406 0.15113 0.0177 0.17617 0.0685 0.025042 0.0509-0.061246 0.12527-0.053153 0.1814 0.00809 0.0561 0.11188 0.10312 0.10223 0.15901-0.00965 0.0559-0.12318 0.0654-0.14963 0.11551-0.026445 0.0502 0.029902 0.14919-0.010752 0.18873z"/>
<circle cx="34.528" cy="2.6332" r="1.372" stroke="#fff" stroke-linecap="round" stroke-linejoin="round" stroke-width=".26458"/>
</svg>
