<?xml version="1.0" encoding="UTF-8"?>
<!DOCTYPE svg PUBLIC "-//W3C//DTD SVG 1.1//EN" "http://www.w3.org/Graphics/SVG/1.1/DTD/svg11.dtd">
<svg version="1.1" xmlns="http://www.w3.org/2000/svg" xmlns:xlink="http://www.w3.org/1999/xlink" x="0" y="0" width="650" height="650" viewBox="0, 0, 650, 650">
  <g id="Layer_1" transform="translate(25, 25)">
    <path d="M8.751,-25 L591.249,-25 C609.888,-25 625,-10.89 625,6.514 L625,593.486 C625,610.89 609.888,625 591.249,625 L8.751,625 C-9.887,625 -25,610.89 -25,593.486 L-25,6.514 C-25,-10.89 -9.887,-25 8.751,-25 z" fill="#191919"/>
    <path d="M322.5,255 L322.5,467.165 C322.5,535.635 378.79,591.925 447.255,591.925 C515.72,591.925 572.01,535.635 572.01,467.165 C572.01,398.7 515.72,342.41 447.255,342.41 C428.985,342.41 411.585,346.425 395.885,353.6 L395.885,255 z M447.255,415.8 C476.06,415.8 498.625,438.36 498.625,467.165 C498.625,495.975 476.06,518.54 447.255,518.54 C418.45,518.54 395.885,495.975 395.885,467.165 C395.885,438.36 418.45,415.8 447.255,415.8 z" fill="#49A835" id="path1270-7"/>
    <path d="M203.625,255 L203.625,353.6 C187.93,346.425 170.525,342.41 152.255,342.41 C83.79,342.41 27.5,398.7 27.5,467.165 C27.5,535.635 83.79,591.925 152.255,591.925 C220.72,591.925 277.01,535.635 277.01,467.165 L277.01,255 z M152.255,415.8 C181.06,415.8 203.625,438.36 203.625,467.165 C203.625,495.975 181.06,518.54 152.255,518.54 C123.45,518.54 100.885,495.975 100.885,467.165 C100.885,438.36 123.45,415.8 152.255,415.8 z" fill="#FF9C00" id="path1272-5"/>
    <path d="M447.255,5 C378.79,5 322.5,61.29 322.5,129.755 C322.5,198.22 378.79,254.51 447.255,254.51 C465.525,254.51 482.93,250.5 498.625,243.32 L498.625,341.925 L572.01,341.925 L572.01,129.755 C572.01,61.29 515.72,5 447.255,5 z M447.255,78.385 C476.06,78.385 498.625,100.95 498.625,129.755 C498.625,158.56 476.06,181.125 447.255,181.125 C418.45,181.125 395.885,158.56 395.885,129.755 C395.885,100.95 418.45,78.385 447.255,78.385 z" fill="#CB0C29" id="path1274-5"/>
    <path d="M152.255,5 C83.79,5 27.5,61.29 27.5,129.755 L27.5,341.925 L100.885,341.925 L100.885,243.32 C116.585,250.5 133.985,254.51 152.255,254.51 C220.72,254.51 277.01,198.22 277.01,129.755 C277.01,61.29 220.72,5 152.255,5 z M152.255,78.385 C181.06,78.385 203.625,100.95 203.625,129.755 C203.625,158.56 181.06,181.125 152.255,181.125 C123.45,181.125 100.885,158.56 100.885,129.755 C100.885,100.95 123.45,78.385 152.255,78.385 z" fill="#2D7DB3" id="path1282-6"/>
  </g>
</svg>
