<?xml version="1.0" encoding="UTF-8"?>
<!DOCTYPE svg PUBLIC "-//W3C//DTD SVG 1.1//EN" "http://www.w3.org/Graphics/SVG/1.1/DTD/svg11.dtd">
<svg version="1.1" xmlns="http://www.w3.org/2000/svg" xmlns:xlink="http://www.w3.org/1999/xlink" x="0" y="0" width="1024" height="1024" viewBox="0, 0, 1024, 1024">
  <g id="Layer_1" transform="translate(127, 118)">
    <path d="M-73.829,-118 L843.829,-118 C873.193,-118 897,-95.771 897,-68.353 L897,856.353 C897,883.771 873.193,906 843.829,906 L-73.829,906 C-103.191,906 -127,883.771 -127,856.353 L-127,-68.353 C-127,-95.771 -103.191,-118 -73.829,-118 z" fill="#191919"/>
    <path d="M420.446,323.108 L420.446,657.349 C420.446,765.216 509.125,853.894 616.983,853.894 C724.842,853.894 813.52,765.216 813.52,657.349 C813.52,549.49 724.842,460.812 616.983,460.812 C588.201,460.812 560.789,467.137 536.056,478.441 L536.056,323.108 z M616.983,576.43 C662.362,576.43 697.911,611.97 697.911,657.349 C697.911,702.736 662.362,738.285 616.983,738.285 C571.604,738.285 536.056,702.736 536.056,657.349 C536.056,611.97 571.604,576.43 616.983,576.43 z" fill="#49A835" id="path1270-7"/>
    <path d="M233.172,323.108 L233.172,478.441 C208.447,467.137 181.027,460.812 152.245,460.812 C44.386,460.812 -44.292,549.49 -44.292,657.349 C-44.292,765.216 44.386,853.894 152.245,853.894 C260.104,853.894 348.782,765.216 348.782,657.349 L348.782,323.108 z M152.245,576.43 C197.624,576.43 233.172,611.97 233.172,657.349 C233.172,702.736 197.624,738.285 152.245,738.285 C106.866,738.285 71.317,702.736 71.317,657.349 C71.317,611.97 106.866,576.43 152.245,576.43 z" fill="#FF9C00" id="path1272-5"/>
    <path d="M616.983,-70.738 C509.125,-70.738 420.446,17.94 420.446,125.799 C420.446,233.657 509.125,322.336 616.983,322.336 C645.766,322.336 673.185,316.018 697.911,304.707 L697.911,460.048 L813.52,460.048 L813.52,125.799 C813.52,17.94 724.842,-70.738 616.983,-70.738 z M616.983,44.871 C662.362,44.871 697.911,80.42 697.911,125.799 C697.911,171.178 662.362,206.726 616.983,206.726 C571.604,206.726 536.056,171.178 536.056,125.799 C536.056,80.42 571.604,44.871 616.983,44.871 z" fill="#CB0C29" id="path1274-5"/>
    <path d="M152.245,-70.738 C44.386,-70.738 -44.292,17.94 -44.292,125.799 L-44.292,460.048 L71.317,460.048 L71.317,304.707 C96.051,316.018 123.463,322.336 152.245,322.336 C260.104,322.336 348.782,233.657 348.782,125.799 C348.782,17.94 260.104,-70.738 152.245,-70.738 z M152.245,44.871 C197.624,44.871 233.172,80.42 233.172,125.799 C233.172,171.178 197.624,206.726 152.245,206.726 C106.866,206.726 71.317,171.178 71.317,125.799 C71.317,80.42 106.866,44.871 152.245,44.871 z" fill="#2D7DB3" id="path1282-6"/>
  </g>
</svg>
