<svg version="1.1" baseProfile="full" width="2672.5" height="1471" viewbox="0 0 2672.5 1471" xmlns="http://www.w3.org/2000/svg" xmlns:xlink="http://www.w3.org/1999/xlink" xmlns:ev="http://www.w3.org/2001/xml-events" style="font-weight:bold; font-size:12pt; font-family:'Calibri', Helvetica, sans-serif;;stroke-width:3;stroke-linejoin:round;stroke-linecap:round">
  <title >PQDB Database Diagram</title>
  <desc >#title: PQDB Database Diagram
[scheme|id: INTEGER  🔑;id_text: TEXT ;type: TEXT ;name: TEXT ;description: TEXT ;comment: TEXT ;category: TEXT ;category_comment: TEXT ;stateful: INTEGER ;stateful_comment: TEXT ;nist_round: TEXT ;year_paper: INTEGER ;year_candidate: INTEGER ;year_standardization: INTEGER ;year_comment: TEXT ;problems_comment: TEXT ;trust_comment: TEXT ;website: TEXT ;last_updated: TEXT ;last_updated_comment: TEXT ]
[scheme_author|id: INTEGER  🔑;id_text: TEXT ;name: TEXT ;scheme_id: INTEGER ]
[scheme_problem|id: INTEGER  🔑;id_text: TEXT ;assumption: TEXT ;comment: TEXT ;scheme_id: INTEGER ]
[scheme_link|id: INTEGER  🔑;id_text: TEXT ;url: TEXT ;scheme_id: INTEGER ]
[scheme_source|id: INTEGER  🔑;id_text: TEXT ;url: TEXT ;scheme_id: INTEGER ]
[flavor|id: INTEGER  🔑;id_text: TEXT ;name: TEXT ;description: TEXT ;comment: TEXT ;type: TEXT ;type_comment: TEXT ;security_notion: TEXT ;security_notion_comment: TEXT ;dh_ness: TEXT ;scheme_id: INTEGER ]
[flavor_link|id: INTEGER  🔑;id_text: TEXT ;url: TEXT ;flavor_id: INTEGER ]
[flavor_source|id: INTEGER  🔑;id_text: TEXT ;url: TEXT ;flavor_id: INTEGER ]
[paramset|id: INTEGER  🔑;id_text: TEXT ;name: TEXT ;comment: TEXT ;security_level_classical: INTEGER ;security_level_quantum: INTEGER ;security_level_nist_category: INTEGER ;security_level_comment: TEXT ;failure_probability: REAL ;failure_probability_comment: TEXT ;sizes_sk: INTEGER ;sizes_pk: INTEGER ;sizes_msg: INTEGER ;sizes_ct_sig: INTEGER ;sizes_comment: TEXT ;number_of_operations: TEXT ;flavor_id: INTEGER ]
[paramset_link|id: INTEGER  🔑;id_text: TEXT ;url: TEXT ;paramset_id: INTEGER ]
[paramset_source|id: INTEGER  🔑;id_text: TEXT ;url: TEXT ;paramset_id: INTEGER ]
[implementation|id: INTEGER  🔑;id_text: TEXT ;name: TEXT ;comment: TEXT ;platform: TEXT ;type: TEXT ;side_channel_guarding_branching: INTEGER ;side_channel_guarding_timing: INTEGER ;side_channel_guarding_branching_comment: TEXT ;side_channel_guarding_timing_comment: TEXT ;code_size_overall: REAL ;code_size_gen: REAL ;code_size_enc_sign: REAL ;code_size_dec_vrfy: REAL ;code_size_comment: TEXT ;randomness_required_gen: REAL ;randomness_required_enc_sign: REAL ;randomness_required_dec_vrfy: REAL ;randomness_required_comment: TEXT ;flavor_id: INTEGER ]
[implementation_link|id: INTEGER  🔑;id_text: TEXT ;url: TEXT ;implementation_id: INTEGER ]
[implementation_source|id: INTEGER  🔑;id_text: TEXT ;url: TEXT ;implementation_id: INTEGER ]
[implementation_hardware_feature|id: INTEGER  🔑;id_text: TEXT ;feature: TEXT ;implementation_id: INTEGER ]
[implementation_dependency|id: INTEGER  🔑;id_text: TEXT ;dependency: TEXT ;implementation_id: INTEGER ]
[benchmark|id: INTEGER  🔑;id_text: TEXT ;comment: TEXT ;platform: TEXT ;timings_gen: REAL ;timings_enc_sign: REAL ;timings_dec_vrfy: REAL ;timings_unit: TEXT ;timings_comment: TEXT ;memory_requirements_gen: INTEGER ;memory_requirements_enc_sign: INTEGER ;memory_requirements_dec_vrfy: INTEGER ;memory_requirements_comment: TEXT ;paramset_id: INTEGER ;implementation_id: INTEGER ]
[benchmark_link|id: INTEGER  🔑;id_text: TEXT ;url: TEXT ;benchmark_id: INTEGER ]
[benchmark_source|id: INTEGER  🔑;id_text: TEXT ;url: TEXT ;benchmark_id: INTEGER ]
[scheme_author] -&gt; [scheme]
[scheme_problem] -&gt; [scheme]
[scheme_link] -&gt; [scheme]
[scheme_source] -&gt; [scheme]
[flavor] -&gt; [scheme]
[flavor_link] -&gt; [flavor]
[flavor_source] -&gt; [flavor]
[paramset] -&gt; [flavor]
[paramset_link] -&gt; [paramset]
[paramset_source] -&gt; [paramset]
[implementation] -&gt; [flavor]
[implementation_link] -&gt; [implementation]
[implementation_source] -&gt; [implementation]
[implementation_hardware_feature] -&gt; [implementation]
[implementation_dependency] -&gt; [implementation]
[benchmark] -&gt; [implementation]
[benchmark] -&gt; [paramset]
[benchmark_link] -&gt; [benchmark]
[benchmark_source] -&gt; [benchmark]</desc>
  <rect width="100%" height="100%" fill="white"/>
  <path d="M107 1019 L107 1091.5 L188 1160.5 L188 1160.5 " style="stroke:#33322E;fill:none;stroke-dasharray:none;"></path>
  <path d="M174.4 1156 L182.9 1156.2 L181.3 1147.8 L188 1160.5 Z" style="stroke:#33322E;fill:#33322E;stroke-dasharray:none;"></path>
  <path d="M334 1026.5 L334 1091.5 L334 1111.5 L334 1111.5 " style="stroke:#33322E;fill:none;stroke-dasharray:none;"></path>
  <path d="M328.7 1098.2 L334 1104.8 L339.3 1098.2 L334 1111.5 Z" style="stroke:#33322E;fill:#33322E;stroke-dasharray:none;"></path>
  <path d="M561 1019 L561 1091.5 L480 1160.5 L480 1160.5 " style="stroke:#33322E;fill:none;stroke-dasharray:none;"></path>
  <path d="M486.7 1147.8 L485.1 1156.2 L493.6 1156 L480 1160.5 Z" style="stroke:#33322E;fill:#33322E;stroke-dasharray:none;"></path>
  <path d="M788 1019 L788 1091.5 L480 1222.8 L480 1222.8 " style="stroke:#33322E;fill:none;stroke-dasharray:none;"></path>
  <path d="M490.2 1212.6 L486.1 1220.2 L494.4 1222.5 L480 1222.8 Z" style="stroke:#33322E;fill:#33322E;stroke-dasharray:none;"></path>
  <path d="M1067.5 1071.5 L1067.5 1091.5 L480 1246.5 L480 1246.5 " style="stroke:#33322E;fill:none;stroke-dasharray:none;"></path>
  <path d="M491.5 1237.9 L486.4 1244.8 L494.3 1248.2 L480 1246.5 Z" style="stroke:#33322E;fill:#33322E;stroke-dasharray:none;"></path>
  <path d="M791 699.5 L791 839.5 L921.5 899 L921.5 899 " style="stroke:#33322E;fill:none;stroke-dasharray:none;"></path>
  <path d="M907.2 898.3 L915.4 896.2 L911.6 888.6 L921.5 899 Z" style="stroke:#33322E;fill:#33322E;stroke-dasharray:none;"></path>
  <path d="M1018 699.5 L1018 839.5 L1025.9 859.5 L1025.9 859.5 " style="stroke:#33322E;fill:none;stroke-dasharray:none;"></path>
  <path d="M1016 849 L1023.4 853.3 L1025.9 845.1 L1025.9 859.5 Z" style="stroke:#33322E;fill:#33322E;stroke-dasharray:none;"></path>
  <path d="M1335.5 797 L1335.5 839.5 L1213.5 896.9 L1213.5 896.9 " style="stroke:#33322E;fill:none;stroke-dasharray:none;"></path>
  <path d="M1223.3 886.4 L1219.5 894 L1227.8 896 L1213.5 896.9 Z" style="stroke:#33322E;fill:#33322E;stroke-dasharray:none;"></path>
  <path d="M643 350 L643 452.5 L1151.5 594.6 L1151.5 594.6 " style="stroke:#33322E;fill:none;stroke-dasharray:none;"></path>
  <path d="M1137.2 596.1 L1145.1 592.8 L1140.1 585.9 L1151.5 594.6 Z" style="stroke:#33322E;fill:#33322E;stroke-dasharray:none;"></path>
  <path d="M889 350 L889 452.5 L1151.5 566.3 L1151.5 566.3 " style="stroke:#33322E;fill:none;stroke-dasharray:none;"></path>
  <path d="M1137.1 565.9 L1145.4 563.6 L1141.4 556.1 L1151.5 566.3 Z" style="stroke:#33322E;fill:#33322E;stroke-dasharray:none;"></path>
  <path d="M2082.5 819.5 L2082.5 839.5 L1213.5 947.4 L1213.5 947.4 " style="stroke:#33322E;fill:none;stroke-dasharray:none;"></path>
  <path d="M1226.1 940.4 L1220.1 946.6 L1227.4 951 L1213.5 947.4 Z" style="stroke:#33322E;fill:#33322E;stroke-dasharray:none;"></path>
  <path d="M1295 332.8 L1729.3 452.5 L1860.5 524.4 L1860.5 524.4 " style="stroke:#33322E;fill:none;stroke-dasharray:none;"></path>
  <path d="M1846.2 522.7 L1854.7 521.2 L1851.4 513.3 L1860.5 524.4 Z" style="stroke:#33322E;fill:#33322E;stroke-dasharray:none;"></path>
  <path d="M1598 343.7 L1900.8 452.5 L1919.5 472.5 L1919.5 472.5 " style="stroke:#33322E;fill:none;stroke-dasharray:none;"></path>
  <path d="M1906.5 466.4 L1915 467.6 L1914.3 459.1 L1919.5 472.5 Z" style="stroke:#33322E;fill:#33322E;stroke-dasharray:none;"></path>
  <path d="M2194.6 350 L2181.5 452.5 L2171.3 472.5 L2171.3 472.5 " style="stroke:#33322E;fill:none;stroke-dasharray:none;"></path>
  <path d="M2172.6 458.2 L2174.3 466.6 L2182.1 463.1 L2171.3 472.5 Z" style="stroke:#33322E;fill:#33322E;stroke-dasharray:none;"></path>
  <path d="M2474.7 350 L2371.8 452.5 L2304.5 497.5 L2304.5 497.5 " style="stroke:#33322E;fill:none;stroke-dasharray:none;"></path>
  <path d="M2312.6 485.6 L2310 493.8 L2318.5 494.5 L2304.5 497.5 Z" style="stroke:#33322E;fill:#33322E;stroke-dasharray:none;"></path>
  <path d="M2006 345.2 L2411.8 452.5 L2304.5 515.5 L2304.5 515.5 " style="stroke:#33322E;fill:none;stroke-dasharray:none;"></path>
  <path d="M2313.3 504.2 L2310.2 512.2 L2318.7 513.4 L2304.5 515.5 Z" style="stroke:#33322E;fill:#33322E;stroke-dasharray:none;"></path>
  <path d="M1706.3 432.5 L1689.3 452.5 L1519.5 545.4 L1519.5 545.4 " style="stroke:#33322E;fill:none;stroke-dasharray:none;"></path>
  <path d="M1528.6 534.3 L1525.3 542.2 L1533.8 543.6 L1519.5 545.4 Z" style="stroke:#33322E;fill:#33322E;stroke-dasharray:none;"></path>
  <path d="M1694 120.5 L1694 140.5 L1710.4 160.5 L1710.4 160.5 " style="stroke:#33322E;fill:none;stroke-dasharray:none;"></path>
  <path d="M1697.8 153.6 L1706.2 155.3 L1706.1 146.8 L1710.4 160.5 Z" style="stroke:#33322E;fill:#33322E;stroke-dasharray:none;"></path>
  <path d="M1950 120.5 L1950 140.5 L1933.6 160.5 L1933.6 160.5 " style="stroke:#33322E;fill:none;stroke-dasharray:none;"></path>
  <path d="M1937.9 146.8 L1937.8 155.3 L1946.2 153.6 L1933.6 160.5 Z" style="stroke:#33322E;fill:#33322E;stroke-dasharray:none;"></path>
  <rect x="188.5" y="1111.5" height="347" width="292" style="stroke:#33322E;fill:#eee8d5;stroke-dasharray:none;"></rect>
  <text x="334.5" y="1133" style="fill: #33322E;text-anchor: middle;">scheme</text>
  <path d="M188.5 1142.5 L480.5 1142.5" style="stroke:#33322E;fill:none;stroke-dasharray:none;"></path>
  <text x="196.5" y="1164" style="fill: #33322E;font-weight:normal;">id: INTEGER  🔑</text>
  <text x="196.5" y="1179" style="fill: #33322E;font-weight:normal;">id_text: TEXT</text>
  <text x="196.5" y="1194" style="fill: #33322E;font-weight:normal;">type: TEXT</text>
  <text x="196.5" y="1209" style="fill: #33322E;font-weight:normal;">name: TEXT</text>
  <text x="196.5" y="1224" style="fill: #33322E;font-weight:normal;">description: TEXT</text>
  <text x="196.5" y="1239" style="fill: #33322E;font-weight:normal;">comment: TEXT</text>
  <text x="196.5" y="1254" style="fill: #33322E;font-weight:normal;">category: TEXT</text>
  <text x="196.5" y="1269" style="fill: #33322E;font-weight:normal;">category_comment: TEXT</text>
  <text x="196.5" y="1284" style="fill: #33322E;font-weight:normal;">stateful: INTEGER</text>
  <text x="196.5" y="1299" style="fill: #33322E;font-weight:normal;">stateful_comment: TEXT</text>
  <text x="196.5" y="1314" style="fill: #33322E;font-weight:normal;">nist_round: TEXT</text>
  <text x="196.5" y="1329" style="fill: #33322E;font-weight:normal;">year_paper: INTEGER</text>
  <text x="196.5" y="1344" style="fill: #33322E;font-weight:normal;">year_candidate: INTEGER</text>
  <text x="196.5" y="1359" style="fill: #33322E;font-weight:normal;">year_standardization: INTEGER</text>
  <text x="196.5" y="1374" style="fill: #33322E;font-weight:normal;">year_comment: TEXT</text>
  <text x="196.5" y="1389" style="fill: #33322E;font-weight:normal;">problems_comment: TEXT</text>
  <text x="196.5" y="1404" style="fill: #33322E;font-weight:normal;">trust_comment: TEXT</text>
  <text x="196.5" y="1419" style="fill: #33322E;font-weight:normal;">website: TEXT</text>
  <text x="196.5" y="1434" style="fill: #33322E;font-weight:normal;">last_updated: TEXT</text>
  <text x="196.5" y="1449" style="fill: #33322E;font-weight:normal;">last_updated_comment: TEXT</text>
  <rect x="13.5" y="912.5" height="107" width="187" style="stroke:#33322E;fill:#eee8d5;stroke-dasharray:none;"></rect>
  <text x="107" y="934" style="fill: #33322E;text-anchor: middle;">scheme_author</text>
  <path d="M13.5 943.5 L200.5 943.5" style="stroke:#33322E;fill:none;stroke-dasharray:none;"></path>
  <text x="21.5" y="965" style="fill: #33322E;font-weight:normal;">id: INTEGER  🔑</text>
  <text x="21.5" y="980" style="fill: #33322E;font-weight:normal;">id_text: TEXT</text>
  <text x="21.5" y="995" style="fill: #33322E;font-weight:normal;">name: TEXT</text>
  <text x="21.5" y="1010" style="fill: #33322E;font-weight:normal;">scheme_id: INTEGER</text>
  <rect x="240.5" y="904.5" height="122" width="187" style="stroke:#33322E;fill:#eee8d5;stroke-dasharray:none;"></rect>
  <text x="334" y="926" style="fill: #33322E;text-anchor: middle;">scheme_problem</text>
  <path d="M240.5 935.5 L427.5 935.5" style="stroke:#33322E;fill:none;stroke-dasharray:none;"></path>
  <text x="248.5" y="957" style="fill: #33322E;font-weight:normal;">id: INTEGER  🔑</text>
  <text x="248.5" y="972" style="fill: #33322E;font-weight:normal;">id_text: TEXT</text>
  <text x="248.5" y="987" style="fill: #33322E;font-weight:normal;">assumption: TEXT</text>
  <text x="248.5" y="1002" style="fill: #33322E;font-weight:normal;">comment: TEXT</text>
  <text x="248.5" y="1017" style="fill: #33322E;font-weight:normal;">scheme_id: INTEGER</text>
  <rect x="467.5" y="912.5" height="107" width="187" style="stroke:#33322E;fill:#eee8d5;stroke-dasharray:none;"></rect>
  <text x="561" y="934" style="fill: #33322E;text-anchor: middle;">scheme_link</text>
  <path d="M467.5 943.5 L654.5 943.5" style="stroke:#33322E;fill:none;stroke-dasharray:none;"></path>
  <text x="475.5" y="965" style="fill: #33322E;font-weight:normal;">id: INTEGER  🔑</text>
  <text x="475.5" y="980" style="fill: #33322E;font-weight:normal;">id_text: TEXT</text>
  <text x="475.5" y="995" style="fill: #33322E;font-weight:normal;">url: TEXT</text>
  <text x="475.5" y="1010" style="fill: #33322E;font-weight:normal;">scheme_id: INTEGER</text>
  <rect x="694.5" y="912.5" height="107" width="187" style="stroke:#33322E;fill:#eee8d5;stroke-dasharray:none;"></rect>
  <text x="788" y="934" style="fill: #33322E;text-anchor: middle;">scheme_source</text>
  <path d="M694.5 943.5 L881.5 943.5" style="stroke:#33322E;fill:none;stroke-dasharray:none;"></path>
  <text x="702.5" y="965" style="fill: #33322E;font-weight:normal;">id: INTEGER  🔑</text>
  <text x="702.5" y="980" style="fill: #33322E;font-weight:normal;">id_text: TEXT</text>
  <text x="702.5" y="995" style="fill: #33322E;font-weight:normal;">url: TEXT</text>
  <text x="702.5" y="1010" style="fill: #33322E;font-weight:normal;">scheme_id: INTEGER</text>
  <rect x="921.5" y="859.5" height="212" width="292" style="stroke:#33322E;fill:#eee8d5;stroke-dasharray:none;"></rect>
  <text x="1067.5" y="881" style="fill: #33322E;text-anchor: middle;">flavor</text>
  <path d="M921.5 890.5 L1213.5 890.5" style="stroke:#33322E;fill:none;stroke-dasharray:none;"></path>
  <text x="929.5" y="912" style="fill: #33322E;font-weight:normal;">id: INTEGER  🔑</text>
  <text x="929.5" y="927" style="fill: #33322E;font-weight:normal;">id_text: TEXT</text>
  <text x="929.5" y="942" style="fill: #33322E;font-weight:normal;">name: TEXT</text>
  <text x="929.5" y="957" style="fill: #33322E;font-weight:normal;">description: TEXT</text>
  <text x="929.5" y="972" style="fill: #33322E;font-weight:normal;">comment: TEXT</text>
  <text x="929.5" y="987" style="fill: #33322E;font-weight:normal;">type: TEXT</text>
  <text x="929.5" y="1002" style="fill: #33322E;font-weight:normal;">type_comment: TEXT</text>
  <text x="929.5" y="1017" style="fill: #33322E;font-weight:normal;">security_notion: TEXT</text>
  <text x="929.5" y="1032" style="fill: #33322E;font-weight:normal;">security_notion_comment: TEXT</text>
  <text x="929.5" y="1047" style="fill: #33322E;font-weight:normal;">dh_ness: TEXT</text>
  <text x="929.5" y="1062" style="fill: #33322E;font-weight:normal;">scheme_id: INTEGER</text>
  <rect x="697.5" y="592.5" height="107" width="187" style="stroke:#33322E;fill:#eee8d5;stroke-dasharray:none;"></rect>
  <text x="791" y="614" style="fill: #33322E;text-anchor: middle;">flavor_link</text>
  <path d="M697.5 623.5 L884.5 623.5" style="stroke:#33322E;fill:none;stroke-dasharray:none;"></path>
  <text x="705.5" y="645" style="fill: #33322E;font-weight:normal;">id: INTEGER  🔑</text>
  <text x="705.5" y="660" style="fill: #33322E;font-weight:normal;">id_text: TEXT</text>
  <text x="705.5" y="675" style="fill: #33322E;font-weight:normal;">url: TEXT</text>
  <text x="705.5" y="690" style="fill: #33322E;font-weight:normal;">flavor_id: INTEGER</text>
  <rect x="924.5" y="592.5" height="107" width="187" style="stroke:#33322E;fill:#eee8d5;stroke-dasharray:none;"></rect>
  <text x="1018" y="614" style="fill: #33322E;text-anchor: middle;">flavor_source</text>
  <path d="M924.5 623.5 L1111.5 623.5" style="stroke:#33322E;fill:none;stroke-dasharray:none;"></path>
  <text x="932.5" y="645" style="fill: #33322E;font-weight:normal;">id: INTEGER  🔑</text>
  <text x="932.5" y="660" style="fill: #33322E;font-weight:normal;">id_text: TEXT</text>
  <text x="932.5" y="675" style="fill: #33322E;font-weight:normal;">url: TEXT</text>
  <text x="932.5" y="690" style="fill: #33322E;font-weight:normal;">flavor_id: INTEGER</text>
  <rect x="1151.5" y="495.5" height="302" width="368" style="stroke:#33322E;fill:#eee8d5;stroke-dasharray:none;"></rect>
  <text x="1335.5" y="517" style="fill: #33322E;text-anchor: middle;">paramset</text>
  <path d="M1151.5 526.5 L1519.5 526.5" style="stroke:#33322E;fill:none;stroke-dasharray:none;"></path>
  <text x="1159.5" y="548" style="fill: #33322E;font-weight:normal;">id: INTEGER  🔑</text>
  <text x="1159.5" y="563" style="fill: #33322E;font-weight:normal;">id_text: TEXT</text>
  <text x="1159.5" y="578" style="fill: #33322E;font-weight:normal;">name: TEXT</text>
  <text x="1159.5" y="593" style="fill: #33322E;font-weight:normal;">comment: TEXT</text>
  <text x="1159.5" y="608" style="fill: #33322E;font-weight:normal;">security_level_classical: INTEGER</text>
  <text x="1159.5" y="623" style="fill: #33322E;font-weight:normal;">security_level_quantum: INTEGER</text>
  <text x="1159.5" y="638" style="fill: #33322E;font-weight:normal;">security_level_nist_category: INTEGER</text>
  <text x="1159.5" y="653" style="fill: #33322E;font-weight:normal;">security_level_comment: TEXT</text>
  <text x="1159.5" y="668" style="fill: #33322E;font-weight:normal;">failure_probability: REAL</text>
  <text x="1159.5" y="683" style="fill: #33322E;font-weight:normal;">failure_probability_comment: TEXT</text>
  <text x="1159.5" y="698" style="fill: #33322E;font-weight:normal;">sizes_sk: INTEGER</text>
  <text x="1159.5" y="713" style="fill: #33322E;font-weight:normal;">sizes_pk: INTEGER</text>
  <text x="1159.5" y="728" style="fill: #33322E;font-weight:normal;">sizes_msg: INTEGER</text>
  <text x="1159.5" y="743" style="fill: #33322E;font-weight:normal;">sizes_ct_sig: INTEGER</text>
  <text x="1159.5" y="758" style="fill: #33322E;font-weight:normal;">sizes_comment: TEXT</text>
  <text x="1159.5" y="773" style="fill: #33322E;font-weight:normal;">number_of_operations: TEXT</text>
  <text x="1159.5" y="788" style="fill: #33322E;font-weight:normal;">flavor_id: INTEGER</text>
  <rect x="540.5" y="243.5" height="107" width="206" style="stroke:#33322E;fill:#eee8d5;stroke-dasharray:none;"></rect>
  <text x="643.5" y="265" style="fill: #33322E;text-anchor: middle;">paramset_link</text>
  <path d="M540.5 274.5 L746.5 274.5" style="stroke:#33322E;fill:none;stroke-dasharray:none;"></path>
  <text x="548.5" y="296" style="fill: #33322E;font-weight:normal;">id: INTEGER  🔑</text>
  <text x="548.5" y="311" style="fill: #33322E;font-weight:normal;">id_text: TEXT</text>
  <text x="548.5" y="326" style="fill: #33322E;font-weight:normal;">url: TEXT</text>
  <text x="548.5" y="341" style="fill: #33322E;font-weight:normal;">paramset_id: INTEGER</text>
  <rect x="786.5" y="243.5" height="107" width="206" style="stroke:#33322E;fill:#eee8d5;stroke-dasharray:none;"></rect>
  <text x="889.5" y="265" style="fill: #33322E;text-anchor: middle;">paramset_source</text>
  <path d="M786.5 274.5 L992.5 274.5" style="stroke:#33322E;fill:none;stroke-dasharray:none;"></path>
  <text x="794.5" y="296" style="fill: #33322E;font-weight:normal;">id: INTEGER  🔑</text>
  <text x="794.5" y="311" style="fill: #33322E;font-weight:normal;">id_text: TEXT</text>
  <text x="794.5" y="326" style="fill: #33322E;font-weight:normal;">url: TEXT</text>
  <text x="794.5" y="341" style="fill: #33322E;font-weight:normal;">paramset_id: INTEGER</text>
  <rect x="1860.5" y="472.5" height="347" width="444" style="stroke:#33322E;fill:#eee8d5;stroke-dasharray:none;"></rect>
  <text x="2082.5" y="494" style="fill: #33322E;text-anchor: middle;">implementation</text>
  <path d="M1860.5 503.5 L2304.5 503.5" style="stroke:#33322E;fill:none;stroke-dasharray:none;"></path>
  <text x="1868.5" y="525" style="fill: #33322E;font-weight:normal;">id: INTEGER  🔑</text>
  <text x="1868.5" y="540" style="fill: #33322E;font-weight:normal;">id_text: TEXT</text>
  <text x="1868.5" y="555" style="fill: #33322E;font-weight:normal;">name: TEXT</text>
  <text x="1868.5" y="570" style="fill: #33322E;font-weight:normal;">comment: TEXT</text>
  <text x="1868.5" y="585" style="fill: #33322E;font-weight:normal;">platform: TEXT</text>
  <text x="1868.5" y="600" style="fill: #33322E;font-weight:normal;">type: TEXT</text>
  <text x="1868.5" y="615" style="fill: #33322E;font-weight:normal;">side_channel_guarding_branching: INTEGER</text>
  <text x="1868.5" y="630" style="fill: #33322E;font-weight:normal;">side_channel_guarding_timing: INTEGER</text>
  <text x="1868.5" y="645" style="fill: #33322E;font-weight:normal;">side_channel_guarding_branching_comment: TEXT</text>
  <text x="1868.5" y="660" style="fill: #33322E;font-weight:normal;">side_channel_guarding_timing_comment: TEXT</text>
  <text x="1868.5" y="675" style="fill: #33322E;font-weight:normal;">code_size_overall: REAL</text>
  <text x="1868.5" y="690" style="fill: #33322E;font-weight:normal;">code_size_gen: REAL</text>
  <text x="1868.5" y="705" style="fill: #33322E;font-weight:normal;">code_size_enc_sign: REAL</text>
  <text x="1868.5" y="720" style="fill: #33322E;font-weight:normal;">code_size_dec_vrfy: REAL</text>
  <text x="1868.5" y="735" style="fill: #33322E;font-weight:normal;">code_size_comment: TEXT</text>
  <text x="1868.5" y="750" style="fill: #33322E;font-weight:normal;">randomness_required_gen: REAL</text>
  <text x="1868.5" y="765" style="fill: #33322E;font-weight:normal;">randomness_required_enc_sign: REAL</text>
  <text x="1868.5" y="780" style="fill: #33322E;font-weight:normal;">randomness_required_dec_vrfy: REAL</text>
  <text x="1868.5" y="795" style="fill: #33322E;font-weight:normal;">randomness_required_comment: TEXT</text>
  <text x="1868.5" y="810" style="fill: #33322E;font-weight:normal;">flavor_id: INTEGER</text>
  <rect x="1032.5" y="243.5" height="107" width="263" style="stroke:#33322E;fill:#eee8d5;stroke-dasharray:none;"></rect>
  <text x="1164" y="265" style="fill: #33322E;text-anchor: middle;">implementation_link</text>
  <path d="M1032.5 274.5 L1295.5 274.5" style="stroke:#33322E;fill:none;stroke-dasharray:none;"></path>
  <text x="1040.5" y="296" style="fill: #33322E;font-weight:normal;">id: INTEGER  🔑</text>
  <text x="1040.5" y="311" style="fill: #33322E;font-weight:normal;">id_text: TEXT</text>
  <text x="1040.5" y="326" style="fill: #33322E;font-weight:normal;">url: TEXT</text>
  <text x="1040.5" y="341" style="fill: #33322E;font-weight:normal;">implementation_id: INTEGER</text>
  <rect x="1335.5" y="243.5" height="107" width="263" style="stroke:#33322E;fill:#eee8d5;stroke-dasharray:none;"></rect>
  <text x="1467" y="265" style="fill: #33322E;text-anchor: middle;">implementation_source</text>
  <path d="M1335.5 274.5 L1598.5 274.5" style="stroke:#33322E;fill:none;stroke-dasharray:none;"></path>
  <text x="1343.5" y="296" style="fill: #33322E;font-weight:normal;">id: INTEGER  🔑</text>
  <text x="1343.5" y="311" style="fill: #33322E;font-weight:normal;">id_text: TEXT</text>
  <text x="1343.5" y="326" style="fill: #33322E;font-weight:normal;">url: TEXT</text>
  <text x="1343.5" y="341" style="fill: #33322E;font-weight:normal;">implementation_id: INTEGER</text>
  <rect x="2046.5" y="243.5" height="107" width="311" style="stroke:#33322E;fill:#eee8d5;stroke-dasharray:none;"></rect>
  <text x="2202" y="265" style="fill: #33322E;text-anchor: middle;">implementation_hardware_feature</text>
  <path d="M2046.5 274.5 L2357.5 274.5" style="stroke:#33322E;fill:none;stroke-dasharray:none;"></path>
  <text x="2054.5" y="296" style="fill: #33322E;font-weight:normal;">id: INTEGER  🔑</text>
  <text x="2054.5" y="311" style="fill: #33322E;font-weight:normal;">id_text: TEXT</text>
  <text x="2054.5" y="326" style="fill: #33322E;font-weight:normal;">feature: TEXT</text>
  <text x="2054.5" y="341" style="fill: #33322E;font-weight:normal;">implementation_id: INTEGER</text>
  <rect x="2397.5" y="243.5" height="107" width="263" style="stroke:#33322E;fill:#eee8d5;stroke-dasharray:none;"></rect>
  <text x="2529" y="265" style="fill: #33322E;text-anchor: middle;">implementation_dependency</text>
  <path d="M2397.5 274.5 L2660.5 274.5" style="stroke:#33322E;fill:none;stroke-dasharray:none;"></path>
  <text x="2405.5" y="296" style="fill: #33322E;font-weight:normal;">id: INTEGER  🔑</text>
  <text x="2405.5" y="311" style="fill: #33322E;font-weight:normal;">id_text: TEXT</text>
  <text x="2405.5" y="326" style="fill: #33322E;font-weight:normal;">dependency: TEXT</text>
  <text x="2405.5" y="341" style="fill: #33322E;font-weight:normal;">implementation_id: INTEGER</text>
  <rect x="1638.5" y="160.5" height="272" width="368" style="stroke:#33322E;fill:#eee8d5;stroke-dasharray:none;"></rect>
  <text x="1822.5" y="182" style="fill: #33322E;text-anchor: middle;">benchmark</text>
  <path d="M1638.5 191.5 L2006.5 191.5" style="stroke:#33322E;fill:none;stroke-dasharray:none;"></path>
  <text x="1646.5" y="213" style="fill: #33322E;font-weight:normal;">id: INTEGER  🔑</text>
  <text x="1646.5" y="228" style="fill: #33322E;font-weight:normal;">id_text: TEXT</text>
  <text x="1646.5" y="243" style="fill: #33322E;font-weight:normal;">comment: TEXT</text>
  <text x="1646.5" y="258" style="fill: #33322E;font-weight:normal;">platform: TEXT</text>
  <text x="1646.5" y="273" style="fill: #33322E;font-weight:normal;">timings_gen: REAL</text>
  <text x="1646.5" y="288" style="fill: #33322E;font-weight:normal;">timings_enc_sign: REAL</text>
  <text x="1646.5" y="303" style="fill: #33322E;font-weight:normal;">timings_dec_vrfy: REAL</text>
  <text x="1646.5" y="318" style="fill: #33322E;font-weight:normal;">timings_unit: TEXT</text>
  <text x="1646.5" y="333" style="fill: #33322E;font-weight:normal;">timings_comment: TEXT</text>
  <text x="1646.5" y="348" style="fill: #33322E;font-weight:normal;">memory_requirements_gen: INTEGER</text>
  <text x="1646.5" y="363" style="fill: #33322E;font-weight:normal;">memory_requirements_enc_sign: INTEGER</text>
  <text x="1646.5" y="378" style="fill: #33322E;font-weight:normal;">memory_requirements_dec_vrfy: INTEGER</text>
  <text x="1646.5" y="393" style="fill: #33322E;font-weight:normal;">memory_requirements_comment: TEXT</text>
  <text x="1646.5" y="408" style="fill: #33322E;font-weight:normal;">paramset_id: INTEGER</text>
  <text x="1646.5" y="423" style="fill: #33322E;font-weight:normal;">implementation_id: INTEGER</text>
  <rect x="1586.5" y="13.5" height="107" width="216" style="stroke:#33322E;fill:#eee8d5;stroke-dasharray:none;"></rect>
  <text x="1694.5" y="35" style="fill: #33322E;text-anchor: middle;">benchmark_link</text>
  <path d="M1586.5 44.5 L1802.5 44.5" style="stroke:#33322E;fill:none;stroke-dasharray:none;"></path>
  <text x="1594.5" y="66" style="fill: #33322E;font-weight:normal;">id: INTEGER  🔑</text>
  <text x="1594.5" y="81" style="fill: #33322E;font-weight:normal;">id_text: TEXT</text>
  <text x="1594.5" y="96" style="fill: #33322E;font-weight:normal;">url: TEXT</text>
  <text x="1594.5" y="111" style="fill: #33322E;font-weight:normal;">benchmark_id: INTEGER</text>
  <rect x="1842.5" y="13.5" height="107" width="216" style="stroke:#33322E;fill:#eee8d5;stroke-dasharray:none;"></rect>
  <text x="1950.5" y="35" style="fill: #33322E;text-anchor: middle;">benchmark_source</text>
  <path d="M1842.5 44.5 L2058.5 44.5" style="stroke:#33322E;fill:none;stroke-dasharray:none;"></path>
  <text x="1850.5" y="66" style="fill: #33322E;font-weight:normal;">id: INTEGER  🔑</text>
  <text x="1850.5" y="81" style="fill: #33322E;font-weight:normal;">id_text: TEXT</text>
  <text x="1850.5" y="96" style="fill: #33322E;font-weight:normal;">url: TEXT</text>
  <text x="1850.5" y="111" style="fill: #33322E;font-weight:normal;">benchmark_id: INTEGER</text>
</svg>