<svg version="1.1" baseProfile="full" width="2914" height="1486" viewbox="0 0 2914 1486" xmlns="http://www.w3.org/2000/svg" xmlns:xlink="http://www.w3.org/1999/xlink" xmlns:ev="http://www.w3.org/2001/xml-events" style="font-weight:bold; font-size:12pt; font-family:'Calibri', Helvetica, sans-serif;;stroke-width:3;stroke-linejoin:round;stroke-linecap:round">
  <title >PQDB Database Diagram</title>
  <desc >#title: PQDB Database Diagram
[scheme|id: INTEGER  🔑;id_text: TEXT ;type: TEXT ;name: TEXT ;description: TEXT ;comment: TEXT ;category: TEXT ;category_comment: TEXT ;stateful: INTEGER ;stateful_comment: TEXT ;nist_round: TEXT ;year_paper: INTEGER ;year_candidate: INTEGER ;year_standardization: INTEGER ;year_comment: TEXT ;problems_comment: TEXT ;trust_comment: TEXT ;website: TEXT ;patents: TEXT ;last_updated: TEXT ;last_updated_comment: TEXT ]
[scheme_author|id: INTEGER  🔑;id_text: TEXT ;name: TEXT ;scheme_id: INTEGER ]
[scheme_problem|id: INTEGER  🔑;id_text: TEXT ;assumption: TEXT ;comment: TEXT ;scheme_id: INTEGER ]
[scheme_link|id: INTEGER  🔑;id_text: TEXT ;url: TEXT ;scheme_id: INTEGER ]
[scheme_source|id: INTEGER  🔑;id_text: TEXT ;url: TEXT ;scheme_id: INTEGER ]
[scheme_patents_source|id: INTEGER  🔑;id_text: TEXT ;url: TEXT ;scheme_id: INTEGER ]
[scheme_attack|id: INTEGER  🔑;id_text: TEXT ;url: TEXT ;scheme_id: INTEGER ]
[flavor|id: INTEGER  🔑;id_text: TEXT ;name: TEXT ;description: TEXT ;comment: TEXT ;type: TEXT ;type_comment: TEXT ;security_notion: TEXT ;security_notion_comment: TEXT ;dh_ness: TEXT ;scheme_id: INTEGER ]
[flavor_link|id: INTEGER  🔑;id_text: TEXT ;url: TEXT ;flavor_id: INTEGER ]
[flavor_source|id: INTEGER  🔑;id_text: TEXT ;url: TEXT ;flavor_id: INTEGER ]
[paramset|id: INTEGER  🔑;id_text: TEXT ;name: TEXT ;comment: TEXT ;security_level_classical: INTEGER ;security_level_quantum: INTEGER ;security_level_nist_category: INTEGER ;security_level_comment: TEXT ;failure_probability: REAL ;failure_probability_comment: TEXT ;sizes_sk: INTEGER ;sizes_pk: INTEGER ;sizes_msg: INTEGER ;sizes_ct_sig: INTEGER ;sizes_comment: TEXT ;number_of_operations: TEXT ;flavor_id: INTEGER ]
[paramset_link|id: INTEGER  🔑;id_text: TEXT ;url: TEXT ;paramset_id: INTEGER ]
[paramset_source|id: INTEGER  🔑;id_text: TEXT ;url: TEXT ;paramset_id: INTEGER ]
[implementation|id: INTEGER  🔑;id_text: TEXT ;name: TEXT ;comment: TEXT ;platform: TEXT ;type: TEXT ;side_channel_guarding_branching: INTEGER ;side_channel_guarding_timing: INTEGER ;side_channel_guarding_branching_comment: TEXT ;side_channel_guarding_timing_comment: TEXT ;code_size_overall: REAL ;code_size_gen: REAL ;code_size_enc_sign: REAL ;code_size_dec_vrfy: REAL ;code_size_comment: TEXT ;randomness_required_gen: REAL ;randomness_required_enc_sign: REAL ;randomness_required_dec_vrfy: REAL ;randomness_required_comment: TEXT ;flavor_id: INTEGER ]
[implementation_link|id: INTEGER  🔑;id_text: TEXT ;url: TEXT ;implementation_id: INTEGER ]
[implementation_source|id: INTEGER  🔑;id_text: TEXT ;url: TEXT ;implementation_id: INTEGER ]
[implementation_hardware_feature|id: INTEGER  🔑;id_text: TEXT ;feature: TEXT ;implementation_id: INTEGER ]
[implementation_dependency|id: INTEGER  🔑;id_text: TEXT ;dependency: TEXT ;implementation_id: INTEGER ]
[benchmark|id: INTEGER  🔑;id_text: TEXT ;comment: TEXT ;platform: TEXT ;timings_gen: REAL ;timings_enc_sign: REAL ;timings_dec_vrfy: REAL ;timings_unit: TEXT ;timings_comment: TEXT ;memory_requirements_gen: INTEGER ;memory_requirements_enc_sign: INTEGER ;memory_requirements_dec_vrfy: INTEGER ;memory_requirements_comment: TEXT ;paramset_id: INTEGER ;implementation_id: INTEGER ]
[benchmark_link|id: INTEGER  🔑;id_text: TEXT ;url: TEXT ;benchmark_id: INTEGER ]
[benchmark_source|id: INTEGER  🔑;id_text: TEXT ;url: TEXT ;benchmark_id: INTEGER ]
[scheme_author] -&gt; [scheme]
[scheme_problem] -&gt; [scheme]
[scheme_link] -&gt; [scheme]
[scheme_source] -&gt; [scheme]
[scheme_patents_source] -&gt; [scheme]
[scheme_attack] -&gt; [scheme]
[flavor] -&gt; [scheme]
[flavor_link] -&gt; [flavor]
[flavor_source] -&gt; [flavor]
[paramset] -&gt; [flavor]
[paramset_link] -&gt; [paramset]
[paramset_source] -&gt; [paramset]
[implementation] -&gt; [flavor]
[implementation_link] -&gt; [implementation]
[implementation_source] -&gt; [implementation]
[implementation_hardware_feature] -&gt; [implementation]
[implementation_dependency] -&gt; [implementation]
[benchmark] -&gt; [implementation]
[benchmark] -&gt; [paramset]
[benchmark_link] -&gt; [benchmark]
[benchmark_source] -&gt; [benchmark]</desc>
  <rect width="100%" height="100%" fill="white"/>
  <path d="M107 1019 L107 1091.5 L301.5 1206.3 L301.5 1206.3 " style="stroke:#33322E;fill:none;stroke-dasharray:none;"></path>
  <path d="M287.3 1204.1 L295.8 1202.9 L292.7 1194.9 L301.5 1206.3 Z" style="stroke:#33322E;fill:#33322E;stroke-dasharray:none;"></path>
  <path d="M334 1026.5 L334 1091.5 L345.3 1111.5 L345.3 1111.5 " style="stroke:#33322E;fill:none;stroke-dasharray:none;"></path>
  <path d="M334.1 1102.5 L342 1105.7 L343.4 1097.3 L345.3 1111.5 Z" style="stroke:#33322E;fill:#33322E;stroke-dasharray:none;"></path>
  <path d="M561 1019 L561 1091.5 L549.7 1111.5 L549.7 1111.5 " style="stroke:#33322E;fill:none;stroke-dasharray:none;"></path>
  <path d="M551.6 1097.3 L553 1105.7 L560.9 1102.5 L549.7 1111.5 Z" style="stroke:#33322E;fill:#33322E;stroke-dasharray:none;"></path>
  <path d="M788 1019 L788 1091.5 L593.5 1206.3 L593.5 1206.3 " style="stroke:#33322E;fill:none;stroke-dasharray:none;"></path>
  <path d="M602.3 1194.9 L599.2 1202.9 L607.7 1204.1 L593.5 1206.3 Z" style="stroke:#33322E;fill:#33322E;stroke-dasharray:none;"></path>
  <path d="M1029.5 1019 L1029.5 1091.5 L593.5 1242.1 L593.5 1242.1 " style="stroke:#33322E;fill:none;stroke-dasharray:none;"></path>
  <path d="M604.4 1232.7 L599.8 1239.9 L607.8 1242.8 L593.5 1242.1 Z" style="stroke:#33322E;fill:#33322E;stroke-dasharray:none;"></path>
  <path d="M1271 1019 L1271 1091.5 L593.5 1256.9 L593.5 1256.9 " style="stroke:#33322E;fill:none;stroke-dasharray:none;"></path>
  <path d="M605.2 1248.5 L600 1255.3 L607.7 1258.9 L593.5 1256.9 Z" style="stroke:#33322E;fill:#33322E;stroke-dasharray:none;"></path>
  <path d="M1550.5 1071.5 L1550.5 1091.5 L593.5 1265.9 L593.5 1265.9 " style="stroke:#33322E;fill:none;stroke-dasharray:none;"></path>
  <path d="M605.7 1258.3 L600.1 1264.7 L607.6 1268.8 L593.5 1265.9 Z" style="stroke:#33322E;fill:#33322E;stroke-dasharray:none;"></path>
  <path d="M1032.5 699.5 L1032.5 839.5 L1404.5 930 L1404.5 930 " style="stroke:#33322E;fill:none;stroke-dasharray:none;"></path>
  <path d="M1390.3 932 L1398 928.4 L1392.8 921.7 L1404.5 930 Z" style="stroke:#33322E;fill:#33322E;stroke-dasharray:none;"></path>
  <path d="M1259.5 699.5 L1259.5 839.5 L1404.5 902.3 L1404.5 902.3 " style="stroke:#33322E;fill:none;stroke-dasharray:none;"></path>
  <path d="M1390.1 901.9 L1398.4 899.6 L1394.4 892.1 L1404.5 902.3 Z" style="stroke:#33322E;fill:#33322E;stroke-dasharray:none;"></path>
  <path d="M1577 797 L1577 839.5 L1572.8 859.5 L1572.8 859.5 " style="stroke:#33322E;fill:none;stroke-dasharray:none;"></path>
  <path d="M1570.3 845.4 L1574.2 853 L1580.8 847.5 L1572.8 859.5 Z" style="stroke:#33322E;fill:#33322E;stroke-dasharray:none;"></path>
  <path d="M884.5 350 L884.5 452.5 L1393 594.6 L1393 594.6 " style="stroke:#33322E;fill:none;stroke-dasharray:none;"></path>
  <path d="M1378.7 596.1 L1386.6 592.8 L1381.6 585.9 L1393 594.6 Z" style="stroke:#33322E;fill:#33322E;stroke-dasharray:none;"></path>
  <path d="M1130.5 350 L1130.5 452.5 L1393 566.3 L1393 566.3 " style="stroke:#33322E;fill:none;stroke-dasharray:none;"></path>
  <path d="M1378.6 565.9 L1386.9 563.6 L1382.9 556.1 L1393 566.3 Z" style="stroke:#33322E;fill:#33322E;stroke-dasharray:none;"></path>
  <path d="M2324 819.5 L2324 839.5 L1696.5 941.7 L1696.5 941.7 " style="stroke:#33322E;fill:none;stroke-dasharray:none;"></path>
  <path d="M1708.8 934.3 L1703.1 940.6 L1710.5 944.8 L1696.5 941.7 Z" style="stroke:#33322E;fill:#33322E;stroke-dasharray:none;"></path>
  <path d="M1536.5 332.8 L1970.8 452.5 L2102 524.4 L2102 524.4 " style="stroke:#33322E;fill:none;stroke-dasharray:none;"></path>
  <path d="M2087.7 522.7 L2096.2 521.2 L2092.9 513.3 L2102 524.4 Z" style="stroke:#33322E;fill:#33322E;stroke-dasharray:none;"></path>
  <path d="M1839.5 343.7 L2142.3 452.5 L2161 472.5 L2161 472.5 " style="stroke:#33322E;fill:none;stroke-dasharray:none;"></path>
  <path d="M2148 466.4 L2156.5 467.6 L2155.8 459.1 L2161 472.5 Z" style="stroke:#33322E;fill:#33322E;stroke-dasharray:none;"></path>
  <path d="M2436.1 350 L2423 452.5 L2412.8 472.5 L2412.8 472.5 " style="stroke:#33322E;fill:none;stroke-dasharray:none;"></path>
  <path d="M2414.1 458.2 L2415.8 466.6 L2423.6 463.1 L2412.8 472.5 Z" style="stroke:#33322E;fill:#33322E;stroke-dasharray:none;"></path>
  <path d="M2716.2 350 L2613.3 452.5 L2546 497.5 L2546 497.5 " style="stroke:#33322E;fill:none;stroke-dasharray:none;"></path>
  <path d="M2554.1 485.6 L2551.5 493.8 L2560 494.5 L2546 497.5 Z" style="stroke:#33322E;fill:#33322E;stroke-dasharray:none;"></path>
  <path d="M2247.5 345.2 L2653.3 452.5 L2546 515.5 L2546 515.5 " style="stroke:#33322E;fill:none;stroke-dasharray:none;"></path>
  <path d="M2554.8 504.2 L2551.7 512.2 L2560.2 513.4 L2546 515.5 Z" style="stroke:#33322E;fill:#33322E;stroke-dasharray:none;"></path>
  <path d="M1947.8 432.5 L1930.8 452.5 L1761 545.4 L1761 545.4 " style="stroke:#33322E;fill:none;stroke-dasharray:none;"></path>
  <path d="M1770.1 534.3 L1766.8 542.2 L1775.3 543.6 L1761 545.4 Z" style="stroke:#33322E;fill:#33322E;stroke-dasharray:none;"></path>
  <path d="M1935.5 120.5 L1935.5 140.5 L1951.9 160.5 L1951.9 160.5 " style="stroke:#33322E;fill:none;stroke-dasharray:none;"></path>
  <path d="M1939.3 153.6 L1947.7 155.3 L1947.6 146.8 L1951.9 160.5 Z" style="stroke:#33322E;fill:#33322E;stroke-dasharray:none;"></path>
  <path d="M2191.5 120.5 L2191.5 140.5 L2175.1 160.5 L2175.1 160.5 " style="stroke:#33322E;fill:none;stroke-dasharray:none;"></path>
  <path d="M2179.4 146.8 L2179.3 155.3 L2187.7 153.6 L2175.1 160.5 Z" style="stroke:#33322E;fill:#33322E;stroke-dasharray:none;"></path>
  <rect x="301.5" y="1111.5" height="362" width="292" style="stroke:#33322E;fill:#eee8d5;stroke-dasharray:none;"></rect>
  <text x="447.5" y="1133" style="fill: #33322E;text-anchor: middle;">scheme</text>
  <path d="M301.5 1142.5 L593.5 1142.5" style="stroke:#33322E;fill:none;stroke-dasharray:none;"></path>
  <text x="309.5" y="1164" style="fill: #33322E;font-weight:normal;">id: INTEGER  🔑</text>
  <text x="309.5" y="1179" style="fill: #33322E;font-weight:normal;">id_text: TEXT</text>
  <text x="309.5" y="1194" style="fill: #33322E;font-weight:normal;">type: TEXT</text>
  <text x="309.5" y="1209" style="fill: #33322E;font-weight:normal;">name: TEXT</text>
  <text x="309.5" y="1224" style="fill: #33322E;font-weight:normal;">description: TEXT</text>
  <text x="309.5" y="1239" style="fill: #33322E;font-weight:normal;">comment: TEXT</text>
  <text x="309.5" y="1254" style="fill: #33322E;font-weight:normal;">category: TEXT</text>
  <text x="309.5" y="1269" style="fill: #33322E;font-weight:normal;">category_comment: TEXT</text>
  <text x="309.5" y="1284" style="fill: #33322E;font-weight:normal;">stateful: INTEGER</text>
  <text x="309.5" y="1299" style="fill: #33322E;font-weight:normal;">stateful_comment: TEXT</text>
  <text x="309.5" y="1314" style="fill: #33322E;font-weight:normal;">nist_round: TEXT</text>
  <text x="309.5" y="1329" style="fill: #33322E;font-weight:normal;">year_paper: INTEGER</text>
  <text x="309.5" y="1344" style="fill: #33322E;font-weight:normal;">year_candidate: INTEGER</text>
  <text x="309.5" y="1359" style="fill: #33322E;font-weight:normal;">year_standardization: INTEGER</text>
  <text x="309.5" y="1374" style="fill: #33322E;font-weight:normal;">year_comment: TEXT</text>
  <text x="309.5" y="1389" style="fill: #33322E;font-weight:normal;">problems_comment: TEXT</text>
  <text x="309.5" y="1404" style="fill: #33322E;font-weight:normal;">trust_comment: TEXT</text>
  <text x="309.5" y="1419" style="fill: #33322E;font-weight:normal;">website: TEXT</text>
  <text x="309.5" y="1434" style="fill: #33322E;font-weight:normal;">patents: TEXT</text>
  <text x="309.5" y="1449" style="fill: #33322E;font-weight:normal;">last_updated: TEXT</text>
  <text x="309.5" y="1464" style="fill: #33322E;font-weight:normal;">last_updated_comment: TEXT</text>
  <rect x="13.5" y="912.5" height="107" width="187" style="stroke:#33322E;fill:#eee8d5;stroke-dasharray:none;"></rect>
  <text x="107" y="934" style="fill: #33322E;text-anchor: middle;">scheme_author</text>
  <path d="M13.5 943.5 L200.5 943.5" style="stroke:#33322E;fill:none;stroke-dasharray:none;"></path>
  <text x="21.5" y="965" style="fill: #33322E;font-weight:normal;">id: INTEGER  🔑</text>
  <text x="21.5" y="980" style="fill: #33322E;font-weight:normal;">id_text: TEXT</text>
  <text x="21.5" y="995" style="fill: #33322E;font-weight:normal;">name: TEXT</text>
  <text x="21.5" y="1010" style="fill: #33322E;font-weight:normal;">scheme_id: INTEGER</text>
  <rect x="240.5" y="904.5" height="122" width="187" style="stroke:#33322E;fill:#eee8d5;stroke-dasharray:none;"></rect>
  <text x="334" y="926" style="fill: #33322E;text-anchor: middle;">scheme_problem</text>
  <path d="M240.5 935.5 L427.5 935.5" style="stroke:#33322E;fill:none;stroke-dasharray:none;"></path>
  <text x="248.5" y="957" style="fill: #33322E;font-weight:normal;">id: INTEGER  🔑</text>
  <text x="248.5" y="972" style="fill: #33322E;font-weight:normal;">id_text: TEXT</text>
  <text x="248.5" y="987" style="fill: #33322E;font-weight:normal;">assumption: TEXT</text>
  <text x="248.5" y="1002" style="fill: #33322E;font-weight:normal;">comment: TEXT</text>
  <text x="248.5" y="1017" style="fill: #33322E;font-weight:normal;">scheme_id: INTEGER</text>
  <rect x="467.5" y="912.5" height="107" width="187" style="stroke:#33322E;fill:#eee8d5;stroke-dasharray:none;"></rect>
  <text x="561" y="934" style="fill: #33322E;text-anchor: middle;">scheme_link</text>
  <path d="M467.5 943.5 L654.5 943.5" style="stroke:#33322E;fill:none;stroke-dasharray:none;"></path>
  <text x="475.5" y="965" style="fill: #33322E;font-weight:normal;">id: INTEGER  🔑</text>
  <text x="475.5" y="980" style="fill: #33322E;font-weight:normal;">id_text: TEXT</text>
  <text x="475.5" y="995" style="fill: #33322E;font-weight:normal;">url: TEXT</text>
  <text x="475.5" y="1010" style="fill: #33322E;font-weight:normal;">scheme_id: INTEGER</text>
  <rect x="694.5" y="912.5" height="107" width="187" style="stroke:#33322E;fill:#eee8d5;stroke-dasharray:none;"></rect>
  <text x="788" y="934" style="fill: #33322E;text-anchor: middle;">scheme_source</text>
  <path d="M694.5 943.5 L881.5 943.5" style="stroke:#33322E;fill:none;stroke-dasharray:none;"></path>
  <text x="702.5" y="965" style="fill: #33322E;font-weight:normal;">id: INTEGER  🔑</text>
  <text x="702.5" y="980" style="fill: #33322E;font-weight:normal;">id_text: TEXT</text>
  <text x="702.5" y="995" style="fill: #33322E;font-weight:normal;">url: TEXT</text>
  <text x="702.5" y="1010" style="fill: #33322E;font-weight:normal;">scheme_id: INTEGER</text>
  <rect x="921.5" y="912.5" height="107" width="216" style="stroke:#33322E;fill:#eee8d5;stroke-dasharray:none;"></rect>
  <text x="1029.5" y="934" style="fill: #33322E;text-anchor: middle;">scheme_patents_source</text>
  <path d="M921.5 943.5 L1137.5 943.5" style="stroke:#33322E;fill:none;stroke-dasharray:none;"></path>
  <text x="929.5" y="965" style="fill: #33322E;font-weight:normal;">id: INTEGER  🔑</text>
  <text x="929.5" y="980" style="fill: #33322E;font-weight:normal;">id_text: TEXT</text>
  <text x="929.5" y="995" style="fill: #33322E;font-weight:normal;">url: TEXT</text>
  <text x="929.5" y="1010" style="fill: #33322E;font-weight:normal;">scheme_id: INTEGER</text>
  <rect x="1177.5" y="912.5" height="107" width="187" style="stroke:#33322E;fill:#eee8d5;stroke-dasharray:none;"></rect>
  <text x="1271" y="934" style="fill: #33322E;text-anchor: middle;">scheme_attack</text>
  <path d="M1177.5 943.5 L1364.5 943.5" style="stroke:#33322E;fill:none;stroke-dasharray:none;"></path>
  <text x="1185.5" y="965" style="fill: #33322E;font-weight:normal;">id: INTEGER  🔑</text>
  <text x="1185.5" y="980" style="fill: #33322E;font-weight:normal;">id_text: TEXT</text>
  <text x="1185.5" y="995" style="fill: #33322E;font-weight:normal;">url: TEXT</text>
  <text x="1185.5" y="1010" style="fill: #33322E;font-weight:normal;">scheme_id: INTEGER</text>
  <rect x="1404.5" y="859.5" height="212" width="292" style="stroke:#33322E;fill:#eee8d5;stroke-dasharray:none;"></rect>
  <text x="1550.5" y="881" style="fill: #33322E;text-anchor: middle;">flavor</text>
  <path d="M1404.5 890.5 L1696.5 890.5" style="stroke:#33322E;fill:none;stroke-dasharray:none;"></path>
  <text x="1412.5" y="912" style="fill: #33322E;font-weight:normal;">id: INTEGER  🔑</text>
  <text x="1412.5" y="927" style="fill: #33322E;font-weight:normal;">id_text: TEXT</text>
  <text x="1412.5" y="942" style="fill: #33322E;font-weight:normal;">name: TEXT</text>
  <text x="1412.5" y="957" style="fill: #33322E;font-weight:normal;">description: TEXT</text>
  <text x="1412.5" y="972" style="fill: #33322E;font-weight:normal;">comment: TEXT</text>
  <text x="1412.5" y="987" style="fill: #33322E;font-weight:normal;">type: TEXT</text>
  <text x="1412.5" y="1002" style="fill: #33322E;font-weight:normal;">type_comment: TEXT</text>
  <text x="1412.5" y="1017" style="fill: #33322E;font-weight:normal;">security_notion: TEXT</text>
  <text x="1412.5" y="1032" style="fill: #33322E;font-weight:normal;">security_notion_comment: TEXT</text>
  <text x="1412.5" y="1047" style="fill: #33322E;font-weight:normal;">dh_ness: TEXT</text>
  <text x="1412.5" y="1062" style="fill: #33322E;font-weight:normal;">scheme_id: INTEGER</text>
  <rect x="939.5" y="592.5" height="107" width="187" style="stroke:#33322E;fill:#eee8d5;stroke-dasharray:none;"></rect>
  <text x="1033" y="614" style="fill: #33322E;text-anchor: middle;">flavor_link</text>
  <path d="M939.5 623.5 L1126.5 623.5" style="stroke:#33322E;fill:none;stroke-dasharray:none;"></path>
  <text x="947.5" y="645" style="fill: #33322E;font-weight:normal;">id: INTEGER  🔑</text>
  <text x="947.5" y="660" style="fill: #33322E;font-weight:normal;">id_text: TEXT</text>
  <text x="947.5" y="675" style="fill: #33322E;font-weight:normal;">url: TEXT</text>
  <text x="947.5" y="690" style="fill: #33322E;font-weight:normal;">flavor_id: INTEGER</text>
  <rect x="1166.5" y="592.5" height="107" width="187" style="stroke:#33322E;fill:#eee8d5;stroke-dasharray:none;"></rect>
  <text x="1260" y="614" style="fill: #33322E;text-anchor: middle;">flavor_source</text>
  <path d="M1166.5 623.5 L1353.5 623.5" style="stroke:#33322E;fill:none;stroke-dasharray:none;"></path>
  <text x="1174.5" y="645" style="fill: #33322E;font-weight:normal;">id: INTEGER  🔑</text>
  <text x="1174.5" y="660" style="fill: #33322E;font-weight:normal;">id_text: TEXT</text>
  <text x="1174.5" y="675" style="fill: #33322E;font-weight:normal;">url: TEXT</text>
  <text x="1174.5" y="690" style="fill: #33322E;font-weight:normal;">flavor_id: INTEGER</text>
  <rect x="1393.5" y="495.5" height="302" width="368" style="stroke:#33322E;fill:#eee8d5;stroke-dasharray:none;"></rect>
  <text x="1577.5" y="517" style="fill: #33322E;text-anchor: middle;">paramset</text>
  <path d="M1393.5 526.5 L1761.5 526.5" style="stroke:#33322E;fill:none;stroke-dasharray:none;"></path>
  <text x="1401.5" y="548" style="fill: #33322E;font-weight:normal;">id: INTEGER  🔑</text>
  <text x="1401.5" y="563" style="fill: #33322E;font-weight:normal;">id_text: TEXT</text>
  <text x="1401.5" y="578" style="fill: #33322E;font-weight:normal;">name: TEXT</text>
  <text x="1401.5" y="593" style="fill: #33322E;font-weight:normal;">comment: TEXT</text>
  <text x="1401.5" y="608" style="fill: #33322E;font-weight:normal;">security_level_classical: INTEGER</text>
  <text x="1401.5" y="623" style="fill: #33322E;font-weight:normal;">security_level_quantum: INTEGER</text>
  <text x="1401.5" y="638" style="fill: #33322E;font-weight:normal;">security_level_nist_category: INTEGER</text>
  <text x="1401.5" y="653" style="fill: #33322E;font-weight:normal;">security_level_comment: TEXT</text>
  <text x="1401.5" y="668" style="fill: #33322E;font-weight:normal;">failure_probability: REAL</text>
  <text x="1401.5" y="683" style="fill: #33322E;font-weight:normal;">failure_probability_comment: TEXT</text>
  <text x="1401.5" y="698" style="fill: #33322E;font-weight:normal;">sizes_sk: INTEGER</text>
  <text x="1401.5" y="713" style="fill: #33322E;font-weight:normal;">sizes_pk: INTEGER</text>
  <text x="1401.5" y="728" style="fill: #33322E;font-weight:normal;">sizes_msg: INTEGER</text>
  <text x="1401.5" y="743" style="fill: #33322E;font-weight:normal;">sizes_ct_sig: INTEGER</text>
  <text x="1401.5" y="758" style="fill: #33322E;font-weight:normal;">sizes_comment: TEXT</text>
  <text x="1401.5" y="773" style="fill: #33322E;font-weight:normal;">number_of_operations: TEXT</text>
  <text x="1401.5" y="788" style="fill: #33322E;font-weight:normal;">flavor_id: INTEGER</text>
  <rect x="781.5" y="243.5" height="107" width="206" style="stroke:#33322E;fill:#eee8d5;stroke-dasharray:none;"></rect>
  <text x="884.5" y="265" style="fill: #33322E;text-anchor: middle;">paramset_link</text>
  <path d="M781.5 274.5 L987.5 274.5" style="stroke:#33322E;fill:none;stroke-dasharray:none;"></path>
  <text x="789.5" y="296" style="fill: #33322E;font-weight:normal;">id: INTEGER  🔑</text>
  <text x="789.5" y="311" style="fill: #33322E;font-weight:normal;">id_text: TEXT</text>
  <text x="789.5" y="326" style="fill: #33322E;font-weight:normal;">url: TEXT</text>
  <text x="789.5" y="341" style="fill: #33322E;font-weight:normal;">paramset_id: INTEGER</text>
  <rect x="1027.5" y="243.5" height="107" width="206" style="stroke:#33322E;fill:#eee8d5;stroke-dasharray:none;"></rect>
  <text x="1130.5" y="265" style="fill: #33322E;text-anchor: middle;">paramset_source</text>
  <path d="M1027.5 274.5 L1233.5 274.5" style="stroke:#33322E;fill:none;stroke-dasharray:none;"></path>
  <text x="1035.5" y="296" style="fill: #33322E;font-weight:normal;">id: INTEGER  🔑</text>
  <text x="1035.5" y="311" style="fill: #33322E;font-weight:normal;">id_text: TEXT</text>
  <text x="1035.5" y="326" style="fill: #33322E;font-weight:normal;">url: TEXT</text>
  <text x="1035.5" y="341" style="fill: #33322E;font-weight:normal;">paramset_id: INTEGER</text>
  <rect x="2102.5" y="472.5" height="347" width="444" style="stroke:#33322E;fill:#eee8d5;stroke-dasharray:none;"></rect>
  <text x="2324.5" y="494" style="fill: #33322E;text-anchor: middle;">implementation</text>
  <path d="M2102.5 503.5 L2546.5 503.5" style="stroke:#33322E;fill:none;stroke-dasharray:none;"></path>
  <text x="2110.5" y="525" style="fill: #33322E;font-weight:normal;">id: INTEGER  🔑</text>
  <text x="2110.5" y="540" style="fill: #33322E;font-weight:normal;">id_text: TEXT</text>
  <text x="2110.5" y="555" style="fill: #33322E;font-weight:normal;">name: TEXT</text>
  <text x="2110.5" y="570" style="fill: #33322E;font-weight:normal;">comment: TEXT</text>
  <text x="2110.5" y="585" style="fill: #33322E;font-weight:normal;">platform: TEXT</text>
  <text x="2110.5" y="600" style="fill: #33322E;font-weight:normal;">type: TEXT</text>
  <text x="2110.5" y="615" style="fill: #33322E;font-weight:normal;">side_channel_guarding_branching: INTEGER</text>
  <text x="2110.5" y="630" style="fill: #33322E;font-weight:normal;">side_channel_guarding_timing: INTEGER</text>
  <text x="2110.5" y="645" style="fill: #33322E;font-weight:normal;">side_channel_guarding_branching_comment: TEXT</text>
  <text x="2110.5" y="660" style="fill: #33322E;font-weight:normal;">side_channel_guarding_timing_comment: TEXT</text>
  <text x="2110.5" y="675" style="fill: #33322E;font-weight:normal;">code_size_overall: REAL</text>
  <text x="2110.5" y="690" style="fill: #33322E;font-weight:normal;">code_size_gen: REAL</text>
  <text x="2110.5" y="705" style="fill: #33322E;font-weight:normal;">code_size_enc_sign: REAL</text>
  <text x="2110.5" y="720" style="fill: #33322E;font-weight:normal;">code_size_dec_vrfy: REAL</text>
  <text x="2110.5" y="735" style="fill: #33322E;font-weight:normal;">code_size_comment: TEXT</text>
  <text x="2110.5" y="750" style="fill: #33322E;font-weight:normal;">randomness_required_gen: REAL</text>
  <text x="2110.5" y="765" style="fill: #33322E;font-weight:normal;">randomness_required_enc_sign: REAL</text>
  <text x="2110.5" y="780" style="fill: #33322E;font-weight:normal;">randomness_required_dec_vrfy: REAL</text>
  <text x="2110.5" y="795" style="fill: #33322E;font-weight:normal;">randomness_required_comment: TEXT</text>
  <text x="2110.5" y="810" style="fill: #33322E;font-weight:normal;">flavor_id: INTEGER</text>
  <rect x="1273.5" y="243.5" height="107" width="263" style="stroke:#33322E;fill:#eee8d5;stroke-dasharray:none;"></rect>
  <text x="1405" y="265" style="fill: #33322E;text-anchor: middle;">implementation_link</text>
  <path d="M1273.5 274.5 L1536.5 274.5" style="stroke:#33322E;fill:none;stroke-dasharray:none;"></path>
  <text x="1281.5" y="296" style="fill: #33322E;font-weight:normal;">id: INTEGER  🔑</text>
  <text x="1281.5" y="311" style="fill: #33322E;font-weight:normal;">id_text: TEXT</text>
  <text x="1281.5" y="326" style="fill: #33322E;font-weight:normal;">url: TEXT</text>
  <text x="1281.5" y="341" style="fill: #33322E;font-weight:normal;">implementation_id: INTEGER</text>
  <rect x="1576.5" y="243.5" height="107" width="263" style="stroke:#33322E;fill:#eee8d5;stroke-dasharray:none;"></rect>
  <text x="1708" y="265" style="fill: #33322E;text-anchor: middle;">implementation_source</text>
  <path d="M1576.5 274.5 L1839.5 274.5" style="stroke:#33322E;fill:none;stroke-dasharray:none;"></path>
  <text x="1584.5" y="296" style="fill: #33322E;font-weight:normal;">id: INTEGER  🔑</text>
  <text x="1584.5" y="311" style="fill: #33322E;font-weight:normal;">id_text: TEXT</text>
  <text x="1584.5" y="326" style="fill: #33322E;font-weight:normal;">url: TEXT</text>
  <text x="1584.5" y="341" style="fill: #33322E;font-weight:normal;">implementation_id: INTEGER</text>
  <rect x="2287.5" y="243.5" height="107" width="311" style="stroke:#33322E;fill:#eee8d5;stroke-dasharray:none;"></rect>
  <text x="2443" y="265" style="fill: #33322E;text-anchor: middle;">implementation_hardware_feature</text>
  <path d="M2287.5 274.5 L2598.5 274.5" style="stroke:#33322E;fill:none;stroke-dasharray:none;"></path>
  <text x="2295.5" y="296" style="fill: #33322E;font-weight:normal;">id: INTEGER  🔑</text>
  <text x="2295.5" y="311" style="fill: #33322E;font-weight:normal;">id_text: TEXT</text>
  <text x="2295.5" y="326" style="fill: #33322E;font-weight:normal;">feature: TEXT</text>
  <text x="2295.5" y="341" style="fill: #33322E;font-weight:normal;">implementation_id: INTEGER</text>
  <rect x="2638.5" y="243.5" height="107" width="263" style="stroke:#33322E;fill:#eee8d5;stroke-dasharray:none;"></rect>
  <text x="2770" y="265" style="fill: #33322E;text-anchor: middle;">implementation_dependency</text>
  <path d="M2638.5 274.5 L2901.5 274.5" style="stroke:#33322E;fill:none;stroke-dasharray:none;"></path>
  <text x="2646.5" y="296" style="fill: #33322E;font-weight:normal;">id: INTEGER  🔑</text>
  <text x="2646.5" y="311" style="fill: #33322E;font-weight:normal;">id_text: TEXT</text>
  <text x="2646.5" y="326" style="fill: #33322E;font-weight:normal;">dependency: TEXT</text>
  <text x="2646.5" y="341" style="fill: #33322E;font-weight:normal;">implementation_id: INTEGER</text>
  <rect x="1879.5" y="160.5" height="272" width="368" style="stroke:#33322E;fill:#eee8d5;stroke-dasharray:none;"></rect>
  <text x="2063.5" y="182" style="fill: #33322E;text-anchor: middle;">benchmark</text>
  <path d="M1879.5 191.5 L2247.5 191.5" style="stroke:#33322E;fill:none;stroke-dasharray:none;"></path>
  <text x="1887.5" y="213" style="fill: #33322E;font-weight:normal;">id: INTEGER  🔑</text>
  <text x="1887.5" y="228" style="fill: #33322E;font-weight:normal;">id_text: TEXT</text>
  <text x="1887.5" y="243" style="fill: #33322E;font-weight:normal;">comment: TEXT</text>
  <text x="1887.5" y="258" style="fill: #33322E;font-weight:normal;">platform: TEXT</text>
  <text x="1887.5" y="273" style="fill: #33322E;font-weight:normal;">timings_gen: REAL</text>
  <text x="1887.5" y="288" style="fill: #33322E;font-weight:normal;">timings_enc_sign: REAL</text>
  <text x="1887.5" y="303" style="fill: #33322E;font-weight:normal;">timings_dec_vrfy: REAL</text>
  <text x="1887.5" y="318" style="fill: #33322E;font-weight:normal;">timings_unit: TEXT</text>
  <text x="1887.5" y="333" style="fill: #33322E;font-weight:normal;">timings_comment: TEXT</text>
  <text x="1887.5" y="348" style="fill: #33322E;font-weight:normal;">memory_requirements_gen: INTEGER</text>
  <text x="1887.5" y="363" style="fill: #33322E;font-weight:normal;">memory_requirements_enc_sign: INTEGER</text>
  <text x="1887.5" y="378" style="fill: #33322E;font-weight:normal;">memory_requirements_dec_vrfy: INTEGER</text>
  <text x="1887.5" y="393" style="fill: #33322E;font-weight:normal;">memory_requirements_comment: TEXT</text>
  <text x="1887.5" y="408" style="fill: #33322E;font-weight:normal;">paramset_id: INTEGER</text>
  <text x="1887.5" y="423" style="fill: #33322E;font-weight:normal;">implementation_id: INTEGER</text>
  <rect x="1827.5" y="13.5" height="107" width="216" style="stroke:#33322E;fill:#eee8d5;stroke-dasharray:none;"></rect>
  <text x="1935.5" y="35" style="fill: #33322E;text-anchor: middle;">benchmark_link</text>
  <path d="M1827.5 44.5 L2043.5 44.5" style="stroke:#33322E;fill:none;stroke-dasharray:none;"></path>
  <text x="1835.5" y="66" style="fill: #33322E;font-weight:normal;">id: INTEGER  🔑</text>
  <text x="1835.5" y="81" style="fill: #33322E;font-weight:normal;">id_text: TEXT</text>
  <text x="1835.5" y="96" style="fill: #33322E;font-weight:normal;">url: TEXT</text>
  <text x="1835.5" y="111" style="fill: #33322E;font-weight:normal;">benchmark_id: INTEGER</text>
  <rect x="2083.5" y="13.5" height="107" width="216" style="stroke:#33322E;fill:#eee8d5;stroke-dasharray:none;"></rect>
  <text x="2191.5" y="35" style="fill: #33322E;text-anchor: middle;">benchmark_source</text>
  <path d="M2083.5 44.5 L2299.5 44.5" style="stroke:#33322E;fill:none;stroke-dasharray:none;"></path>
  <text x="2091.5" y="66" style="fill: #33322E;font-weight:normal;">id: INTEGER  🔑</text>
  <text x="2091.5" y="81" style="fill: #33322E;font-weight:normal;">id_text: TEXT</text>
  <text x="2091.5" y="96" style="fill: #33322E;font-weight:normal;">url: TEXT</text>
  <text x="2091.5" y="111" style="fill: #33322E;font-weight:normal;">benchmark_id: INTEGER</text>
</svg>